/* XPM */
static char *result[] = {
/* columns rows colors chars-per-pixel */
"65 65 202 2 ",
"   c #000000",
".  c #0C0200",
"X  c #000C00",
"o  c #0F0801",
"O  c #110601",
"+  c #120904",
"@  c #150D09",
"#  c #001500",
"$  c #001C00",
"%  c #17110D",
"&  c #18120E",
"*  c #1B1512",
"=  c #1E1916",
"-  c #1F1B18",
";  c #211814",
":  c #211D1A",
">  c #002400",
",  c #002B00",
"<  c #003300",
"1  c #013A00",
"2  c #0C3D00",
"3  c #133E00",
"4  c #25211E",
"5  c #28221F",
"6  c #272321",
"7  c #2A2523",
"8  c #2C2926",
"9  c #2E2B29",
"0  c #312625",
"q  c #312E2C",
"w  c #33312E",
"e  c #363331",
"r  c #393634",
"t  c #3B3837",
"y  c #3D3B39",
"u  c #413E3C",
"i  c #074100",
"p  c #164000",
"a  c #1B4200",
"s  c #224404",
"d  c #25460A",
"f  c #264611",
"g  c #294713",
"h  c #2A4B13",
"j  c #2D4A1B",
"k  c #304B1E",
"l  c #334D24",
"z  c #364F28",
"x  c #375228",
"c  c #3A522D",
"v  c #3E5433",
"b  c #43403F",
"n  c #415635",
"m  c #435836",
"M  c #45593B",
"N  c #495D3D",
"B  c #454341",
"V  c #484644",
"C  c #4D4A49",
"Z  c #514E4D",
"A  c #4C5E42",
"S  c #565453",
"D  c #5A5655",
"F  c #5D5B5A",
"G  c #615E5D",
"H  c #4E6144",
"J  c #516444",
"K  c #536449",
"L  c #57684E",
"P  c #5D6D55",
"I  c #63615F",
"U  c #616F58",
"Y  c #647459",
"T  c #65725D",
"R  c #656361",
"E  c #696866",
"W  c #6D6C6A",
"Q  c #706F6D",
"!  c #6B7863",
"~  c #6D7A65",
"^  c #727E6B",
"/  c #747371",
"(  c #797976",
")  c #7D7C7A",
"_  c #8C0000",
"`  c #92000F",
"'  c #910018",
"]  c #940027",
"[  c #94002D",
"{  c #950035",
"}  c #96003C",
"|  c #99003E",
" . c #990044",
".. c #980545",
"X. c #9B194B",
"o. c #9B214E",
"O. c #9D2952",
"+. c #9E3355",
"@. c #9F3757",
"#. c #9F3A59",
"$. c #A03E5B",
"%. c #A1435E",
"&. c #9F4561",
"*. c #A24661",
"=. c #A44C64",
"-. c #A65369",
";. c #817F7D",
":. c #AD6678",
">. c #B06F7F",
",. c #76826D",
"<. c #7A8573",
"1. c #7C8775",
"2. c #818C77",
"3. c #82817F",
"4. c #828B7B",
"5. c #89927F",
"6. c #B47B88",
"7. c #858482",
"8. c #888785",
"9. c #898B85",
"0. c #8D8C8A",
"q. c #918F8D",
"w. c #8B9484",
"e. c #8D9685",
"r. c #92928E",
"t. c #949C8D",
"y. c #959492",
"u. c #979A97",
"i. c #9A9A96",
"p. c #9E9D9B",
"a. c #B8818E",
"s. c #BB8C96",
"d. c #A09F9C",
"f. c #BE939B",
"g. c #9BA295",
"h. c #9FA599",
"j. c #A1A29D",
"k. c #A3AA9C",
"l. c #A8AE9F",
"z. c #A5A4A2",
"x. c #A6AAA1",
"c. c #A9ABA5",
"v. c #ADACAA",
"b. c #ABB1A5",
"n. c #AFB4A9",
"m. c #B2B4AD",
"M. c #B4B9AD",
"N. c #B5B4B2",
"B. c #B8B7B5",
"V. c #B7BBB1",
"C. c #B9BCB4",
"Z. c #BEBCBA",
"A. c #C297A0",
"S. c #C29BA3",
"D. c #C8A5AB",
"F. c #CEADB2",
"G. c #C6B9BA",
"H. c #D2B7BB",
"J. c #BCC1B5",
"K. c #BEC1B9",
"L. c #C2C3BD",
"P. c #C5C9BF",
"I. c #C5C4C1",
"U. c #C8C7C4",
"Y. c #C6CAC1",
"T. c #CACDC4",
"R. c #CDCCC9",
"E. c #D7C5C7",
"W. c #DDCBCD",
"Q. c #CED1C8",
"!. c #D2D3CD",
"~. c #D6D9CF",
"^. c #D5D5D1",
"/. c #D9D4D3",
"(. c #D6D9D1",
"). c #DADBD5",
"_. c #DDDCD9",
"`. c #E0CECF",
"'. c #E0CFD1",
"]. c #E3D4D5",
"[. c #E5D7D8",
"{. c #E3DCDB",
"}. c #EADCDD",
"|. c #DEE0D7",
" X c #DFE2DA",
".X c #E2E2DD",
"XX c #E6E8DF",
"oX c #E5E5E1",
"OX c #EAE6E3",
"+X c #E7E9E1",
"@X c #EBEBE5",
"#X c #EEEDE9",
"$X c #F1E6E6",
"%X c #F2EDEB",
"&X c #EFF0EB",
"*X c #F2F2ED",
"=X c #F6F8EF",
"-X c #F6F5F1",
";X c #F8F6F3",
":X c #F7F9F4",
">X c #FBFAF6",
",X c #FFFEFC",
/* pixels */
": r   B.[.o.+.*.%.$.$.].,X,XR.  % 6 = = : &   R.,XB.  e - = = = = = = = : :   U.,XB.  * = = * : 6 u /.,X,XD.X.%.#.-.{ a.oX(   9 & ",
"r   R >X,X'.O.+.=.=.$.$.[.,X,XN.  t : - u   N.,X,X,Xj.  t - - : : : : : q   N.,X,X,Xz.  e : q V   L.,X,XF. .=.=.-.| 6.%X,X^.    9 ",
"  D p.>X,X,X[.O. . .X.|  .'.,XB.    : -     G.,X>X,X>X7.  9 . o o +   7   u.,X,X>X,Xc.    e 5     R.,XS.` X. . .[ 6.;X,X,XoXQ Z   ",
"N.>X,X,X,X,X,XOXW.OX$X$X$X%X,XoXI.B.    B.I.oX,X,X,X,X>XW   8 & * + 9   ) ,X,X,X,X,X{.U.v.  b Z.U.@X,X$X%X%X$X}.W.>X,X,X,X,X,X#Xu.",
"}.,X>X,X,X,X,X,X,X&X!._.oXoX@X,X,X,XI.I.,X,X>X!.R.Q.Y._.-XoXOXOXOXOXoXOX:X(.T.!.T.!.,X,X,XZ.R.,X,X,X@XoX X_.^.-X,X,X,X,X,X>X,X,XW.",
"+.[.,X,X>X,X>X,XoXu         p.,X>X>X,X,X,X,X@Xi   > X   P.,X,X,X,X,X,X,Xm.  X , X N *X>X,X,X,X>X,X,X8.        F #X,X>X,X,X,X,XS.' ",
"+.@.].,X,X>X,XOXV   B 9 r   u.,X>X,X>Xk..X,X@XL l M M c   J.,X>X:X>X,Xn.  n n A f ,.-X,X|.b.,X,X,X,X)   t 8 y   R %X,X>X,X>XS.{ =.",
"=.+.#.OX,X,XOXB   t & - w   0.,X,X,Xg.  P *X=XN 3 c j v v < T.,X,X,XC.> M c g n h ~ ,XXXK   b.,X,X>X/   e = = r   R *X,X,XH.[ =.$.",
"%.=. .'.,XoXB   r = = = 9   ( ,X,Xt.  A   ^ ~.J 1 c z 1 , >   P.,XM.  < < 3 k J 1 ! |.K 1 M   x.,X>XF   7 * = = t   R %X,Xf...=.$.",
"%.=. .[.>XC   e * - : * t   / ,XC.  v l M   <.t.$ v < g..X).(._.:X(.).). Xw.< H < g.,.1 c l M   T.,XC   r @ = = * y   Q ,XD.| -.$.",
"%.+...}.&X. @ : = = * r   B .X,Xk.> c v M > ^ :Xk.X > K.,X,X,X,X,X,X,X,X,Xn.i 1 J.*XL a c c M   K.,X_.=   e @ - * q   B :XF. .@.=.",
"W.+.} }.;Xy   : * . e   B OX,X,Xm.$ M < M < ! >X,Xj.  C.,X>X>X>X,X>X,X>X,Xx.  M.,X=XH s c < A   Y.,X,X_.-   e + + e   I ,XF._ f.#X",
",X].} [.>XZ : y e B   B OX,X>X,XM., 1 Y z > <.:X,X,Xi.b.,X,X,X,X,X,X>X,X,Xg.b.,X,X*XP 1 j Y d # T.,X>X,X_.:   B r V   W ,XD.>.;X,X",
">X,XW.}.>X8         y oX,X>X>X,XC.  t.>Xm.  1.>X,X,X>XXX,X>X>X,X>X,X,X,X,X+X>X,X,X*XP   L.=X2.  T.,X,X>X,X_..         I ,X/.%X,X;X",
"/ &X,X,X>X^.I.Z.N.z.@X,X,X,X,X,Xn.2.,X,X,Xk.T ,X,X>X,X,X,X,X>X,X,X,X>X,X,X,X,X>X,X:Xc V.,X,X:XU Y.,X,X,X,X,X.Xj.N.L.L.).:X:X,X#X/ ",
"  R ) N.,X,X,X,X,X,X*X#X&X*X*X&X!.-X,X>X,X:XT.>X,X>X,X>X>X,X,X,X,X>X,X>X>X,X>X,X,X*XT.,X,X>X,X&X(.&X*X*X#X@X-X,X,X,X,X,X,Xx.6.G   ",
"7 6   r.,X,X>X,X,XV.< c v H 2 T *X,X>X,X>X,X,X>X>X,X>X,X*XB.>X,X>X,XoXc.>X>X,X,X>X,X,X,X,X>X,X,X+XK s N c c 1 P.,X,X>X,X,X8.    8 ",
"* e   W %X,X,X,XC.X j k z   K @X,X,X,X,X,X>X,X,X,X,X,X,X>XB q.,X,X%Xu / ,X,X,X>X,X,X>X>X>X,X,X>X,X Xh # l g s > Y.,X,X,X*XR   8 * ",
"= @ t   / >X,XM.> z v z a ^ #X,X,X,X>X>X>X,X>X).,X,X>X,X>XQ   z.@XW   9.,X,X,X,X-X{.,X,X,X,X,X>X,X,X.XY s v c j 1 K.,X>XW   q * = ",
"* 6 * 7 U.,X:X^   A f c , t.,X,X>X,X,X,X,X,X,XW B.,X,X,X>XR     q @   ;.>X,X,X,X) c.,X,X,X>X,X>X>X,X,X2.> M g M   w.>X,XI.6 @ : = ",
": y   y.,X,X,X*X,.  M c v < k.,X,X>X,X,X>X,X,X(   Z.,X,X-XR   e   u   ( >X,X,Xy.  B.,X,X,X,X,X>X,X>Xe.< M z v   e.:X,X,X,X0.  q 4 ",
"      y.,X,X,X,X:Xw.  > > ,   t.>X,X>X,X,X,X,X)     N.,X-XZ   8 7 e   W ,X>X7.    C.,X,X,X,X,X,X:X2.  , > $   g.>X,X,X,X,X0.      ",
"  U.@X#X,X&X@X@X&X XY.T.Q.!.(.!.*X,X>X-X,X>X>X(   q   B.;XF   r o B   8.;X7.  B   z.#XOXOX.X-X,X#X!.~.!.T.T.Y.oX*X@X@X*X,X#X@XI.  ",
"_.,X,X,X,Xw.1 v l s Y.,X,X,X,X,X,X,X-X9.S / E e . e     &X@X9   B   G ;X_.  e @ : O   6   y.>X,X,X,X,X,X,X,XC.2 j N # k.,X,X,X,X_.",
";X,X;X,X,X9.$ j l a   M.,X>X>X>X,X>X,XoXe       - 9   C @X,X_.B   W #X,X^.  : * * @ w   0.,X,X,X,X>X>X>X,Xk.  f g m   h.,X,X;X,X;X",
"Z .X,X>X,Xe.< v l m N < P.,X,X>X,X,X,X,X@XS   y : r   B #X,X,X_.) #X,X,X_.  r 9 9 y   9.,X,X>X,X>X,X,X,XM., A n l A # x.,X,X,X/.u ",
"  = R.,X,X4.< z l a #     M.>X,X,X,X>X>X,XoXe         9 @X,X;X,X,X,X;X,X^.          ) ;X,X>X,X,X,X,X>Xh.  # # f j A   h.,X,XR.    ",
"e     B.,Xk.  M 3 P M.J.M.M.*X,X,X,X,X,X,X,XOXE S E S W %X,X,X$XS.%X,X,XoX3.0.0.7.p.,X,X,X,X,X,X,X,X@Xm.V.J.n.A k v   C.,XC.    w ",
"* 9 7   R.,Xg., , 9.,X,X,X,X,X>XOX.XoX{. X_._.,X,X:X;X>X*XE.E.>._ a.E.E.-X,X,X,X,X,X)._.{..XoX_.*X,X,X,X,X,X,XT a # c.,X!.  = 7 * ",
"= * t   L.,X,Xc.  1.>X,X>X,X,X,XR.            z.,X,X,X,XOX| ] $.=.O.' X.%X,X>X,X>X;.          S +X,X,X>X>X,X:XP   C.,X,XI.  6 - = ",
"= = e   I.,X,X,Xk.Y >X,X,X>X,X>X,X^.    w 7 e   p.,X,X,X}.$.=.=.$.=.=.=.%X,X,X>X7.  r 8 r   F *X,X,X,X>X>X,X=Xl J.,X,X,XT.  4 : = ",
"= = e   I.,X>X,X,X~.-X,X,X,X,X>X,X,X^.B . 4 - q   i.,XOX:.$.$.*.*.%.%.O.6.%X-X)   r : 8   / *X,X>X>X,X,X,X,X*X!.,X,X;X,XU.  : : = ",
"- * r   I.,X,X,X,X#X>X,X>X,X,X,X,X,X,XW   9 + e   u ;X[.} #.=.#.*.*.*.$. .$X#X0   t % 9   ) >X,X>X,X,X,X,X,X*X*X,X>X>X,XU.  6 - = ",
"= - e   I.,X>X,XQ.<.>X,X>X>X,X>X,X>X8.  w 6 e   S #X,X,XW.+.&.*.$.*.=.+.[.,X,X@XV   r 6 r   / ;X,X,X,X>X>X,X*XT .X,X>X,XT.  : - = ",
"- * r   I.,X,X(.  ^ >X,X>X,X,X,X-X/           Z #X,X;X,XOXX.| %.=.%.| $.-X,X,X,XOXC           I #X,X>X,X,X,X=XN s .X,X,XU.  7 - : ",
"* : b   Z.,XT.2   9.,X,X,X,X,X,X_.v.B.N.m.c.z.-X,X,X,X,X$Xs.s.=.| -.s.f.*X,X,X,X,X#Xz.c.m.N.B.v.^.,X,X,X,X,X>XT > j !.,XI.  e : * ",
"7 e   7.:XT.X c 1 ^ _. X.X X*X,X,X,X,X,X,X,X,XR.Z.U.I.G.*X,X,XW.&.[.,X,X#Xz.c.c.j.C.,X,X,X,X,X,X,X,X*X_..X.X).K l s < ).>X7.  e 4 ",
"6   d.>X,X<., v k j h N , t.>X,X>X>X>X>X,X,Xp.          oX,X>X,X,X,X>X,X.X          y.,X,X>X,X>X,X,X*X1.X x 3 j j A   i.,X,Xi.  9 ",
"  B.,X,X,Xe.< x l v v < t.>X,X,X,X,X,X,X,Xc.  e e t : e oX,X,X-XZ.;X,X,XoX= y t r t   p.,X,X>X,X,X>X,X-X<.  v l j M X l.,X,X,Xm.  ",
"/.,X,X,X,Xw.< v v J $ e.>X,X>X,X>X,X,X,Xv.  r 9 = 9   8 .X,X,X0.  i.,X,XoX  = = : : 9   z.,X,X,X,X>X,X,X;X<.# n z A X j.,X,X,X,X^.",
">X,X,X,X,X<.  s 1   g.,X,X,X,X,X,X,X,Xz.        : 8 =   oX,X8.  t   y.,XoX  q * : &   .   z.,X,X,X,X,X,X,X>X4.  $ 2   t.,X,X,X,X>X",
"F @X,X>X,X!.P.T.T.Y.XX*X*X-X;X*X:X,X#Xm.Z.C.G./   u   R -Xi.  w : t   z.-XW   V   7.oX.X.X_.-X,X:X*X;X*X*X-X.XP.P.Y.I._.,X>X,X@XF ",
"  Z W v.,X,X,X,X,XY.c N L ! N 5.*X,X,X,X,X,X,Xj.    S *X-Xt   7 + e   R ,X-XW     u.,X,X,X,X>X,X@X,.K T K M m !.,X,X,X,X,Xc.Q C   ",
"9 8   y.,X>X,X,Xb.  2 d a   K XX,X>X,X>X>X>X,Xj.  W #X,X-XR   9 w t   ) >X,X*X)   u.,X,X>X>X,X,X,X|.h   d a <   K.,X>X>X,X8.  o q ",
"% r 4 E @X,X>Xn.1 v n v s 4.*X,X>X>X>X,X,X>X,X0.S -X,X,X-XI   =   7   ) ,X>X,X,XR ;.,X,X,X>X,X>X,X,X+X^ f M n z < C.,X,X@XF 6 q & ",
"= O V   W ,X>X2.# N j c , t.,X,X,X,X,X,X,X,X,XZ.#X,X>X,X>XW   C I.R   8.,X,X>X,X%XL.>X,X,X,X,X,X,X,X>X4., n j M   e.,X>XI   7 * ; ",
"@ w r r !.,X,X:X2.  M z v $ t.,X,X>X,X>X>X,X,X,X,X>X,X,X>XF   {.,XOX  ( ,X,X,X>X,X,X>X,X>X>X,X>X,X>X4.> n l v   t.,X,X,X^.t 7 8 & ",
"t B   u.,X,X:X,X*X<.  < , < X e.>X,X>X,X,X,X,X,X,X,X>X,X-X/ ).,X>X,X_.u.>X,X>X,X,X,X,X,X,X,X>X,X=X<.  < > <   e.>X,X>X>X,X0.  : e ",
"  q 0 d.,X,X,X,X,X>XP.K.P.Y.T.K.).,X,X>X,X,X+X>X,X,X,X,X:X@X,X>X,X>X,X*X>X,X,X,X,X:X+X,X>X>X,X,X~.L.Y.P.Y.K.Y.,X,X,X,X,X,Xy.7 6 + ",
"7 !.*X-X,X%XoXoX).^.,X,X,X,X,X,XV.M.,X,X,XT.<.>X,X>X>X,X,X,X,X,X,X,X,X,X,X,X>X,X,X*X! |.,X,X,Xj.Q.,X,X,X,X,X,X!.).oXOX%X,X-X%X^.e ",
"{.,X,X>X;XW * 6 *   7.>X,X>X>X,XM.  K.,X).  ^ ,X,X,X,X:X,X>X,X>X>X,X>X,X>X:X,X>X,X:XA a .X,Xm.  T.,X>X>X,X*XW     r   8.,X,X,X,XoX",
",X,Xs.'.,Xr     . 7   8.>X,X>X,XV.# s h.L   1.>X,X,XP.V.,X,X>X,X>X,X,X,X,Xx.^.,X,X*XU X U g.a   T.,X>X,X-X/   8   8   R ,XH.E.,X,X",
",XS._ }.;XV o q 7 6 w   8.>X,X,Xm.> c > c < ^ :X,XQ.  m.,X>X,X,X,X>X,X>X,Xg.X ).,X*XK f f > M   Y.,X,X-XQ   r 7 4 r   E ,XF.{ [.,X",
"S.| X.}.*X8 O = = = = q   8.>X,Xb., c c M < ~ ,XQ.,   Z.,X,X,X,X,X,X,X,X,Xb.  a ).>XK a c z M X P.,X-X/   t * & : u O D ;XF.' -.H.",
"o.=.| }.-X    9 & - = = e   y.,Xb.  M g N # ~ J.1 l > n.,X*X-X*X:X*X-X*X>Xg.< a z L.H 2 v g A   L.,X(   t % * q w V   D ,XD.| =.} ",
"=.%.o.].,XI.  * 7 % : = 9   W ,X#XL > A 1 c J.H 1 c h A T ! z V.>Xl.c ~ T N s N $ T C.< j A X ^ *X>XV   7 % 9 r q     !.,XS. .=.=.",
"%.=.{ `.,X,XI.  * 7 @ = 9   0.,X,X@XU   , (.=XH 3 z l p 3   t.>X,X-X1.  a s k v 1 ! >XP.>   ,.-X,X>XQ   q + e y   ; ^.,X,XA. .=.#.",
"=.| a.;X,X,X,XI.  = e 7 t   y.,X>X,X@XU Y.,X&XH f v c A # g.,X,X,X,X>X4., A z M i T :X,XJ.~ -X,X,X,X)   r 6 V 7   /.,X>X,X[.O.#.=.",
"{ a.:X,X,X,X,X,XI.          y.,X,X>X,X,X>X,X#Xh   , <   t.>X,X,X,X>X,X>X,.  , <   H -X,X,X>X,X>X>X,X(         ; ^.,X,X>X,X,X].X.X.",
"s.;X,X>X,X>X>X>X,XR.r.z.v.v.^.,X,X,X#X%X,X,X-Xh.t.g.e.b.,X,X,X,X,X,X,X,X>Xh.t.g.r.x.>X,X,X%X*X,X,X,X!.v.v.z.y.(.,X,X,X,X,X,X,X'.:.",
"@X,X,X,X,X>X,X,X,X,X,X,X,X,X,X;X*X#XG R #X#X;X,X,X,X,X,XG.0.g.u.i.u.p.0.R.,X,X,X,X,X;X-XoXV ( %X*X;X,X,X,X,X,X,X,X,X,X,X,X,X,X,X/.",
"/ ^..X,X,X,X,XH.f.S.A.D.s.H.,XI.e t     y e U.,X,X>X,XZ.                  R.,X>X>X,XB.w e     B q ^.;XS.A.S.S.A.f.].,X>X,X*X_.Z.y ",
"    ( ,X,X,XD.]  .}  ._ :.%X,XZ.  ; q 9 7   I.,X,X,X^.  7 B r t y t r y O   _.,X;X,Xv.  - q 7 -   !.,XE.[ ]  . .{ +.[.,X,XoX      ",
"y   C oX,XD.{ =.-.-.#.6.-X,X@X/   r * * t   / @X,X)..   q . * & % & * + q   B oX,XoXI = q % * e @ 8.-X,X].-.=.-.-.+.#.[.,XZ.  e q ",
"; u   u.E.| %.%.%.#.*.%X,X,Xz.  e * = = @ r   z.,X8.  t + : = - = - = = = e   p.,X0.  9 * - = * r   N.,X,XH. .=.$.-. .:./.y . 6 = "
};
