/* XPM */
static char *result[] = {
/* columns rows colors chars-per-pixel */
"65 65 162 2 ",
"   c #004443",
".  c #004A47",
"X  c #00534F",
"o  c #064E5F",
"O  c #005955",
"+  c #015B5A",
"@  c #0B5D5D",
"#  c #145E5E",
"$  c #006E46",
"%  c #006558",
"&  c #006C58",
"*  c #0C6E59",
"=  c #226F5E",
"-  c #28785E",
";  c #1E5B61",
":  c #225C63",
">  c #3B5E6C",
",  c #2D6265",
"<  c #2D6B63",
"1  c #316367",
"2  c #336966",
"3  c #366369",
"4  c #3D656C",
"5  c #3E6B6C",
"6  c #2F7960",
"7  c #377565",
"8  c #347B62",
"9  c #397E64",
"0  c #3D7369",
"q  c #40666E",
"w  c #406E6C",
"e  c #42736C",
"r  c #447C6B",
"t  c #4A7172",
"y  c #577D78",
"u  c #617E7F",
"i  c #009A22",
"p  c #009E3D",
"a  c #00A23B",
"s  c #009E41",
"d  c #329C55",
"f  c #0FA342",
"g  c #11A243",
"h  c #28A848",
"j  c #3BA257",
"k  c #3DA259",
"l  c #358261",
"z  c #3C8364",
"x  c #419E5D",
"c  c #43A55C",
"v  c #45AA5A",
"b  c #49AC5D",
"n  c #4AB35A",
"m  c #50B55E",
"M  c #418467",
"N  c #46816A",
"B  c #49846C",
"V  c #468A68",
"C  c #4B8B6B",
"Z  c #429362",
"A  c #499766",
"S  c #459962",
"D  c #4E946B",
"F  c #4F9C68",
"G  c #50956B",
"H  c #529C6B",
"J  c #4E8370",
"K  c #528472",
"L  c #598677",
"P  c #5E877A",
"I  c #5E8A79",
"U  c #61807E",
"Y  c #618B7B",
"T  c #619D76",
"R  c #669A7B",
"E  c #4DA563",
"W  c #4FA963",
"Q  c #52AC65",
"!  c #54A26A",
"~  c #57A96A",
"^  c #59AD69",
"/  c #54B363",
"(  c #5AB567",
")  c #5AB866",
"_  c #5CB369",
"`  c #63BD6C",
"'  c #65AC75",
"]  c #68AC78",
"[  c #6DBE75",
"{  c #71B17D",
"}  c #6DC174",
"|  c #718E87",
" . c #738E89",
".. c #6B9283",
"X. c #729F84",
"o. c #74908A",
"O. c #7A918F",
"+. c #7D9392",
"@. c #72A781",
"#. c #7CC182",
"$. c #829495",
"%. c #829994",
"&. c #88979A",
"*. c #879B99",
"=. c #8C9C9D",
"-. c #83B58E",
";. c #85BB8E",
":. c #8DBB96",
">. c #8FB899",
",. c #93BC9C",
"<. c #98A3A7",
"1. c #9DAFA9",
"2. c #ADB7B7",
"3. c #B0B7B9",
"4. c #B3B9BC",
"5. c #86C38D",
"6. c #88C68D",
"7. c #8CC592",
"8. c #94C39B",
"9. c #97CC9B",
"0. c #9ACC9D",
"q. c #9CC6A1",
"w. c #9CCBA0",
"e. c #A2CDA6",
"r. c #A4CBA9",
"t. c #A1D2A3",
"y. c #ACD1AE",
"u. c #B6C8BB",
"i. c #B3D4B5",
"p. c #B6D3B8",
"a. c #B7D8B8",
"s. c #BCD9BD",
"d. c #BCBDC4",
"f. c #BED2C1",
"g. c #C1CEC5",
"h. c #C2D4C5",
"j. c #C1DBC2",
"k. c #C5D1C9",
"l. c #CAD2CE",
"z. c #CDD3D1",
"x. c #D2D5D5",
"c. c #D3D8D5",
"v. c #D7D7D9",
"b. c #D6D9D9",
"n. c #DADADD",
"m. c #CEE0CE",
"M. c #D4E3D4",
"N. c #DDE6DD",
"B. c #DFE8DE",
"V. c #DEDBE0",
"C. c #E1DCE3",
"Z. c #E1E0E2",
"A. c #E4EAE3",
"S. c #E7E1E8",
"D. c #E8E4E9",
"F. c #EBEEEA",
"G. c #EFF0EE",
"H. c #F0F0EF",
"J. c #F3EDF3",
"K. c #F4F2F3",
"L. c #F8F4F6",
"P. c #FAF5F8",
/* pixels */
"w 5 5 4 q 3 @ O O O O + : q q 4 q e 5 4 4 4 w w w w w w w w w w w w w w w w w w w w w w 4 4 4 w w 4 4 4 4 4 1 + O O @ 3 q 4 4 w w ",
"5 e r N 9 J  .$.+.+.$.O.Y r N N e w r N N N e e w w w w w w w w w w w w w w w w w w w w e N r w e N N N z 8 L +.$.$.| J 9 r r e w ",
"4 r H Q s ' u.b.x.x.V.x.,.v W ~ N e D _ _ ~ C q 5 w w w w w w w w w w w w w w w w w 5 5 C ^ H e N ~ ^ ^ k f -.l.C.n.u.' s Q H r 4 ",
"4 N W ` [ e.N.L.K.H.F.M.9.n m ~ N e F _ _ ^ C w 4 w w w w w w w w w w w w w w w w w 5 5 D ^ H e B ~ ) _ [ #.y.M.F.L.N.e.[ ` Q N 4 ",
"q 9 s [ p.B.F.L.L.F.s.6.[ / F r e 5 r B C B r w w w w w w w w w w w w w w w w w w w 5 w r B r e e N S n 9.M.c.9.i.F.K.N.p.[ s 9 q ",
"3 K ' e.Z.J.C.b.n.l.-.f b ~ N 4 5 w 5 4 4 4 5 w w w w w w w w w w w w w w w w w w w w w 5 4 5 w q > 9 j q.n.k.^ { k.D.J.N.r.] B 3 ",
"@ | u.N.K.D.3.+.=.%.Y l M N e q 5 w 5 5 5 5 w w w w w w w w w w w w w w w w w w w w w w w 5 5 w w q e r ..=.%.V B o.3.C.F.N.u. .# ",
"O $.v.K.F.h.o.  X % 1 q q 4 w e w w e w w 5 w w w w w w w w w w w w w w w w w w w w w w w w w w w w w w , + # 4 #   +.v.L.L.v.$.O ",
"O $.n.A.i.{ B ; , 2 5 5 5 5 w w w w w w w w w w w w w w e w w w w w w w w w w w w w w w w w w w w w w w 5 2 2 5 , X *.V.P.K.x.+.O ",
"O $.v.A.w.~ C 5 5 w w w w w w w w w w w w w w w w w w w 5 w w w w w w w w w w w w w w w w w w w w w w w 5 w w w 2 @ %.l.F.H.c.+.O ",
"O +.x.F.B.h.O.# 2 w w w w w w w w w w w w w w w w w w w w w w w w w w w w w w w w w w w w w w w w w w w 5 0 w w 5 1 I ;.s.F.n.$.O ",
"O +.x.K.G.x.*.+ 2 w w w w w w w w w w w w w e 5 w w w w w w w w w w w w w w w w w w w w w w w w w w w w w w w w 5 5 8 s ;.M.x.+.+ ",
"O $.V.F.j.:.Y , 5 w w w w w w w w w w w w w w w w w w w w w w w w w w w w w w w w w w w w w w w w w w w w w w w w 5 5 - T 8.8.I : ",
"+ +.x.M.6.g l q 5 w w w w w w w w w w w w w w 5 w w w w w w w w w w w w w w w w w w w w w w w w w w w w w w w w w 0 5 w M v c r q ",
", I ,.0.} c M 4 5 5 w w w w w w w w w w w w 5 e w w w w w w w w w w w w w w w w w w w w w w w w w w w w w w w w 5 5 N H ! Z l e w ",
"q r x n ) ^ B 4 5 e w w w w w w w w w w w w e 5 w w w w w w w w w w e w w w w w w w w w w w w w w w w w w w w w 5 4 B ^ ~ r > 5 w ",
"q 0 8 Z ( _ C 4 w w w w w w w w w w w w w w w w w w w w w w w w w w w w w w 5 e w w w w w w 5 e w w w w w w w w w 5 r C C e 4 w w ",
"w w q N ~ ~ B 4 4 w w w w w w w w w w w w w w w w w w w w w w w w w w w w w w w w w w w w 5 e 5 w w w w w w w w w w 5 5 4 w w w w ",
"5 r G ! D B e w w w w w w w w w w w w w w w w w w w w w w w w w w w w w w w w w w w w w w w w w w w w w w w w w w w w 5 q w w w w ",
"4 N ^ ^ N 4 q w w w w w w w w w w w w w w w w w w w w w w w w w w w w w w w w w w w w w w w w w w w w w w w w w w w w w w w w w w ",
"5 e B C e 5 5 w w w w w w w w w w w w w w w w w w w w w w w w w w w w w w w w w w w w w w w w w w w w w w w w w w w w w w w w w w ",
"e 5 e e e 5 w w w w w w w w w w w w w w w w w w w w w w w w w w w w w w w w w w w w w w w w w w w w w w w w w w w w w w w w w w w ",
"5 r G H r 5 5 e w w w w w w w w w w w w w w w w w w w w w w w w w w w w w w w w w w w w w w w w w w w w w w w w w w w w w w w w w ",
"4 N ^ ^ C 4 5 5 w w w w w w w w w w w w w w w w w w w w w w w w w w w w w w w w w w w w w w w w w w w w w w w w w w w w w w w w w ",
"5 e D D r w w w w w w w w w w w w w w w w w w w w w w w w w w w w w w w w w w w w w w w w w w w w w w w w w w w w w w w w w w w w ",
"w w 5 5 w w w w w w w w w w w w w w w w w w w w w w w w w w w w w w w w w w w w w w w w w w w w w w w w w w w w w w w w w w w w w ",
"w w w 4 4 4 w w w w w w w w w w w w w w w w w w w w w w w w w w w w w w w w w w w w w w w 5 w w w w w w w w w w w w w w w w w w w ",
"w w w w e w w w w w w w w w w w w w w w w w w w w w w w w w w w w w w w w w w w w w w w w e w w w w w w w w w w w w w w w w w w w ",
"w w 5 e G G r w w w w w w w w w w w w w w w w w w w w w w w w w w w w 5 w 5 e 5 w w w w w w w w w w w w w w w w w w w w w w e 5 w ",
"w w q N ~ ( B 4 4 w w w w w w w w w w w w w w w w w w w w w w w w w w e 5 e w w w w w w w w w w w w w w w w w w w w w w w w w w w ",
"w 5 4 N _ ) C 4 w w w w w w w w w w w w w w w w w w w w w w w w w w w w w w w w w w w w w w w w w w w w w w w w w w w w 5 5 5 5 e ",
"w 5 4 r ~ ^ C q w w w w w w w w w w w w w w w w w w w w w w w w w w w w w w w w w w w w w w w w w w w w w w w w w w w w w w w w w ",
"w w 5 r D D r 5 5 w w w w w w w w w e w 5 e w w w w w w w w w w w w w w w w w w w w w w w w w w w w e 5 w w w w w w 5 4 r D D r 4 ",
"w w 5 w w w w 5 w w w w w w w w w w 5 w 5 w w w w w w w w w w w w w w w w w w w w w w w w w w w w w w w w w w w w w q 4 B ^ ^ B 4 ",
"w w w w 5 4 5 e w w w w w w w w w w w w e 5 w w w w w w w w w w w w w w w w w w w w w w w w w w w w w w w w 5 e 5 5 r D H ! D r 5 ",
"w w w w w w w w w w w w w w w w w w w w w w w w w w w w w w w w w w w w w w w w w w w w w w w w w w w w w w w 5 5 5 C ^ ^ B 4 5 w ",
"w w w w w w w w w 5 w w w w w w w w w w w w w w w w w w w w w w w w w w w w w w w w w w w w w w w w w w w w 5 e 5 5 N G D w > 5 w ",
"w w w w w w w w w e w w w w w w w w w w w w w w w w w w w 5 w w w w w w w w w w w w w w w w w w w w w w w w w w w w w e 0 5 5 w w ",
"w w w w w w w w w w w w w w w w w w w w w w w w w w w w w e w w w w w w w w w w w w w w w w w w w w w w w w w w w e 4 > e D D e 5 ",
"w w w w w w w w w w w w w w w w w w w w w w w w w w w w w w w w w w w w w w w w w w w w w w w w w w w w w w w w w w 5 4 B ^ ^ N 4 ",
"w w w 4 w w w w w w w w w w w w w w w w w w w w w w w w w w w w w w w w w w w w w w w w w w w w w w w w w w w w 5 5 r C H H D r 4 ",
"w w w w w w w w w w w w w w w w w w w w w w w w w w w w w w w w w w 5 e w w w w w w w w w w w w w w w w w w w w 5 4 C _ ^ N 5 5 w ",
"5 r C C r 4 w w w w w w w w w w w w w w w w w w w w w w w w w w w w 5 e w w w w w w w w w w e w w w w w w w w w w 5 r G H D N e w ",
"4 r ~ ~ N 4 w w w w w w w w w w w w w w w w w w w w w w w w w w w w w 5 w w w w w w w w w w 5 w w w w w w w w w w w q 5 B ^ ~ N 4 ",
"4 B _ _ B > 5 w w w w w w w 5 e w 5 w w w w w w w w w w w w w w w w w w w w w w w w w w w w w w w w w w w w w 5 q q 0 8 S ) ^ B q ",
"4 N ^ _ B 4 5 w w w w w w 5 e 5 w e w w w w w w w w w w w w w w e w w w w w w w w w w w w w w w w w w w w w 5 5 5 4 N c n ) ~ J q ",
"5 r G H Z z 0 q w w w w w w w w w w w w w w w w w w w w w w w w 5 w w w w w w w w w w w w 5 e w w w w w w 5 r D V < ..r.t.[ k 9 q ",
"w 5 q M v v M q w w w w w w w w w w w w w w w w w w w w w w w w w w w w w w w w w w w w e 5 5 w w w w w q 4 C ^ E * =.Z.M.5.s 9 q ",
"5 0 8 R q.r..., 5 5 w w w w w w w w w w w w w w w w w w w w w w w w w w w w w w w w w w w w w w w w w w 5 5 N H A = $.d.z.p.,.Y : ",
"5 r d ;.M.N.=.+ 2 0 5 e w w w w w w w w w w w w w w w w w w w w w w w w w w w w w w w w w w w w w w w w w w e e 0 5 w w <.n.c.$.O ",
"4 M v #.f.k.+.# 2 e 5 5 w w w w w w w w w w w w w w w w 5 w w w w w w w w w w w w w w w w w w w w w w w w w e N N e < $ X.k.g. .@ ",
"4 N ^ ` [ ] C 4 5 5 5 e w w w w w w w w w w w w w w w w e w w w w w w w w w w w w w w w w w w w w w w w q 5 C ( ! e r ! _ [ ' B 4 ",
"4 r v } 6.:.Y 2 5 w w w w w w w w w w w w w w w w w w w w w w w w w w w w w w w w w w w w w w w 5 5 q e 5 4 V / W r N W [ 7.-.L 1 ",
"4 9 f @.M.n.=.+ < w w w w w w w w w w w w w w w w w w w w w w w w w w w w w w w w w w w w w w w 5 5 5 w q > z v v e 8 a 6.m.x.O.+ ",
", L -.y.m.k.+.# 2 w w w w w w w w w w w w w w w w w w w w w w w w w w w w w w w w w w w w w w w r C B w 0 z @.q.>.t y -.s.F.n.$.O ",
"+ +.z.M.9.^ C 4 5 w w w w w w w w w w w w w w w w w w w w w w w w w w w w w w w w w w w w w w 4 C ^ ! e 9 k w.B.l.U | k.F.H.c.$.O ",
"O &.V.F.i.{ B : 4 5 5 5 5 5 e 5 w w w w w w w w w w w w w w w w w w w w w w w w w w w w 5 5 w 4 C ^ G e 7 d :.l.d.t $.n.P.K.x.O.+ ",
"O $.n.L.G.k.o.  ; 4 4 4 5 e w w w w w w w w w w w w w w w w w w w w w w w w w w w w 5 4 4 4 4 w e r r 5 , & 7 u t . O.b.L.L.n.$.O ",
"@ | u.B.G.D.4.o.K l z z 0 q 5 5 w w w w w w w w w w w w w w w w w w w w w w w w w w r C C C r 2 > 3 5 8 Y &.=.$.O.$.2.Z.F.N.u.| @ ",
"4 B ' e.N.J.D.k.;.a h j 9 > 4 5 5 w w w w w w w w w w w w w w w w w w w w w w w 4 w C ^ _ _ S % o > - p 7.c.S.V.n.b.V.J.B.e.' J 3 ",
"4 9 s [ p.Z.K.F.s.7.0.7.X.z N B e w w w w w w w w w w w w w w w w w w w w w w w 5 5 C ~ ( Q @.=.O.B T 6.a.M.N.N.A.J.F.N.p.[ p 9 q ",
"4 r Q ` [ e.B.L.F.Z.A.M.8.v / ^ C 4 5 w w w w w w w w w w w w w w w w w w w w w w w e r 8 6 1.n.f.' 8.N.m.0.[ 5.i.F.A.r.[ ` Q N 4 ",
"5 r H Q s ' u.b.b.n.C.z.,.c W ^ C 5 5 w w w w w w w w w w w w w w w w w w w w w w w 5 4 : ; <.c.f.' :.x.g.' i p -.l.g.] s Q H r 4 ",
"w e r r 9 J  .$.$.+.$.+.I M M N e w w w w w w w w w w w w w w w w w w w w w w w w 0 5 5 4 5 U $.o.N P +.o.B 6 9 L O. .K 9 N r e w ",
"w q 5 4 q 3 @ O O O O + , 4 4 4 q e w w w w w w w w w w w w w w w w w w w w w w w w w w w e , O # 4 , + @ 3 4 4 1 + + 3 4 4 4 w w "
};
