/* XPM */
static char *result[] = {
/* columns rows colors chars-per-pixel */
"60 55 187 2 ",
"   c #000001",
".  c #00000D",
"X  c #000013",
"o  c #0D0B15",
"O  c #00001B",
"+  c #0A0B1A",
"@  c #09041A",
"#  c #110E1A",
"$  c #140D14",
"%  c #13101B",
"&  c #2B191B",
"*  c #2E251D",
"=  c #33281C",
"-  c #180023",
";  c #371F20",
":  c #533E1A",
">  c #491C2F",
",  c #5D1B3F",
"<  c #492925",
"1  c #492729",
"2  c #552D2A",
"3  c #58292D",
"4  c #563229",
"5  c #693F2D",
"6  c #763E38",
"7  c #5A401D",
"8  c #654C1C",
"9  c #544924",
"0  c #6E4B25",
"q  c #6C432C",
"w  c #724F24",
"e  c #774B2E",
"r  c #665A29",
"t  c #7C5A22",
"y  c #765027",
"u  c #7E463D",
"i  c #7D4A3C",
"p  c #6C602A",
"a  c #642A40",
"s  c #763341",
"d  c #7B3B41",
"f  c #7D4141",
"g  c #8E671E",
"h  c #805926",
"j  c #82542F",
"k  c #854C3D",
"l  c #8C4C3E",
"z  c #86513E",
"x  c #8D553E",
"c  c #8F5A3E",
"v  c #8F5D31",
"b  c #945C3C",
"n  c #95563D",
"m  c #AB5A3E",
"M  c #926D23",
"N  c #9C6C2B",
"B  c #9B7326",
"V  c #9B6435",
"C  c #96613E",
"Z  c #9C693E",
"A  c #9A633C",
"S  c #847331",
"D  c #A57A25",
"F  c #A3712C",
"G  c #A17B29",
"H  c #A16D3C",
"J  c #AE6D3F",
"K  c #A56C38",
"L  c #B3673F",
"P  c #A97333",
"I  c #A6723D",
"U  c #AC763B",
"Y  c #AB783C",
"T  c #B27A31",
"R  c #B4763C",
"E  c #BD753D",
"W  c #B57C3A",
"Q  c #BC7D3C",
"!  c #B07733",
"~  c #C17C3F",
"^  c #8E3D49",
"/  c #8D3748",
"(  c #973841",
")  c #834542",
"_  c #8C4F41",
"`  c #854942",
"'  c #9C4A43",
"]  c #924348",
"[  c #964D49",
"{  c #9B4442",
"}  c #955343",
"|  c #9D5547",
" . c #9B5746",
".. c #A25D44",
"X. c #A66144",
"o. c #AA6544",
"O. c #AD6A43",
"+. c #A2644B",
"@. c #A46B4D",
"#. c #A96F4C",
"$. c #B26D44",
"%. c #AE7A4E",
"&. c #AC714A",
"*. c #B57344",
"=. c #B97541",
"-. c #BC7B43",
";. c #B47C4C",
":. c #B37648",
">. c #C17E44",
",. c #988538",
"<. c #AF8329",
"1. c #B6872D",
"2. c #A28D3C",
"3. c #BD823C",
"4. c #BF8336",
"5. c #C58F2F",
"6. c #CD9B29",
"7. c #C7952C",
"8. c #C48636",
"9. c #CB8C37",
"0. c #C5843C",
"q. c #CA873E",
"w. c #CB893B",
"e. c #C48A37",
"r. c #D08F39",
"t. c #CF9035",
"y. c #D5943D",
"u. c #D69A3D",
"i. c #DB9C3D",
"p. c #E09E3A",
"a. c #DFA730",
"s. c #DCA13A",
"d. c #EEB42E",
"f. c #EBAD35",
"g. c #E2A23C",
"h. c #EDAD3B",
"j. c #E5A838",
"k. c #F0AF37",
"l. c #ECB035",
"z. c #F4B437",
"x. c #FDBE36",
"c. c #F3B339",
"v. c #F9B938",
"b. c #FAB73E",
"n. c #FFC335",
"m. c #FFC933",
"M. c #FEC33C",
"N. c #BD854A",
"B. c #AD9740",
"V. c #BF9353",
"C. c #BEA447",
"Z. c #C58442",
"A. c #CC8C42",
"S. c #CC9B4F",
"D. c #C9934A",
"F. c #D39442",
"G. c #D69A42",
"H. c #D59B45",
"J. c #C39451",
"K. c #C69B52",
"L. c #CC9C50",
"P. c #C9AB4B",
"I. c #D6A34F",
"U. c #CDB24A",
"Y. c #D4BB4C",
"T. c #CFA452",
"R. c #D2AA54",
"E. c #DBB354",
"W. c #D6B355",
"Q. c #E0B854",
"!. c #DEC051",
"~. c #EBC64B",
"^. c #E7CC54",
"/. c #ECCF55",
"(. c #EAC559",
"). c #EECA5A",
"_. c #E7C257",
"`. c #F1CA5B",
"'. c #F1C353",
"]. c #EDD155",
"[. c #F5D25B",
"{. c #F9D65C",
"}. c #FEDE5D",
"|. c #FED957",
" X c #FFE35E",
".X c #FFE95F",
"XX c None",
/* pixels */
"XXXXXXXXXXXXXXXXXXXXXXXXXXXXXXXXXXXXXXXXXXXXXXXXXXXXXXXXXXXXXXXXXXXXXXXXXXXXXXXXXXXXXXXXXXXXXXXXXXXXXXXXXXXXXXXXXXXXXXXX",
"XXXXXXXXXXXXXXXXXXXXXXXXXXXXXXXXXXXXXXXXXXXXXXXXXXXXXXXXXXXXXXXXXXXXXXXXXXXXXXXXXXXXXXXXXXXXXXXXXXXXXXXXXXXXXXXXXXXXXXXX",
"XXXXXXXXXXXXXXXXXXXXXXXXXXXXXXXXXXXXXXXXXXXXXXXXXXXXXXXXXXXXXXXXXXXXXXXXXXXXXXXXXXXXXXXXXXXXXXXXXXXXXXXXXXXXXXXXXXXXXXXX",
"XXXXXXXXXXXXXXXXXXXXXXXXXXXXXXXXXXXXXXXXXXXXXXXXXXXXXXXXXXXXXXXXXXXXXXXXXXXXXXXXXXXXXXXXXXXXXXXXXXXXXXXXXXXXXXXXXXXXXXXX",
"XXXXXXXXXXXXXXXXXXXXXXXXXXXXXXXXXXXXXXXXXXXXXXXXXXXXXXXXXXXXXXXXXXXXXXXXXXXXXXXXXXXXXXXXXXXXXXXXXXXXXXXXXXXXXXXXXXXXXXXX",
"XXXXXXXXXXXXXXXXXXXXXXXXXXXXXXXXXXXXXXXXXXXXXXXXXXXXXXXXXXXXXXXXXXXXXXXXXXXXXXXXXXXXXXXXXXXXXXXXXXXXXXXXXXXXXXXXXXXXXXXX",
"XXXXXXXXXXXXXXXXXXXXXXXXXXXXXXXXXXXXXXXXXXXXXXXXXXXXXXXXXXXXXXXXXXXXXXXXXXXXXXXXXXXXXXXXXXXXXXXXXXXXXXXXXXXXXXXXXXXXXXXX",
"XXXXXXXXXXXXXXXXXXXXXXXXXXXXXXXXXXXXXXXXXXXXXXXXXXXXXXXXXXXXXXXXXXXXXXXXXXXXXXXXXXXXXXXXXXXXXXXXXXXXXXXXXXXXXXXXXXXXXXXX",
"XXXXXXXXXXXXXXXXXXXXXXXXXXXXXXXXXXXXXXXXXXXXXXXXXXXXXXXXXXXXXXXXXXXXXXXXXXXXXXXXXXXXXXXXXXXXXXXXXXXXXXXXXXXXXXXXXXXXXXXX",
"XXXXXXXXXXXXXXXXXXXXXXXXXXXXXXXXXXXXXXXXXXXXXXXXXXXXXXXXXXXXXXXXXXXXXXXXXXXXXXXXXXXXXXXXXXXXXXXXXXXXXXXXXXXXXXXXXXXXXXXX",
"XXXXXXXXXXXXXXXXXXXXXXXXXXXXXXXXXXXXXXXXXXXXXXXXXXXXXXXXXXXXXXXXXXXXXXXXXXXXXXXXXXXXXXXXXXXXXXXXXXXXXXXXXXXXXXXXXXXXXXXX",
"XXXXXXXXXXXXXXXXXXXXXXXXXXXXXXXXXXXXXXXXXXXXXXXXXX* * * * * * * XXXXXXXXXXXXXXXXXXXXXXXXXXXXXXXXXXXXXXXXXXXXXXXXXXXXXXXX",
"XXXXXXXXXXXXXXXXXXXXXXXXXXXXXXXXXXXXXXXX        ,.].^.^.^.^.~.l.g X X X X XXXXXXXXXXXXXXXXXXXXXXXXXXXXXXXXXXXXXXXXXXXXXX",
"XXXXXXXXXXXXXXXXXXXXXXXXXXXXXXXXXXXXXXXX,.2.2.2.P.`.`.(.`.).'.h.7.B D 1.M XXXXXXXXXXXXXXXXXXXXXXXXXXXXXXXXXXXXXXXXXXXXXX",
"XXXXXXXXXXXXXXXXXXXXXXXXXXXXXXXXXX@ . r /. X}. XQ.' | | | | | | G.m.n.m.f.7 O + XXXXXXXXXXXXXXXXXXXXXXXXXXXXXXXXXXXXXXXX",
"XXXXXXXXXXXXXXXXXXXXXXXXXXXXXXXX9 Y.]._.K.J.J.J.S.g.g.g.g.g.g.g.A.>.>.-.q.a.d.6.= XXXXXXXXXXXXXXXXXXXXXXXXXXXXXXXXXXXXXX",
"XXXXXXXXXXXXXXXXXXXXXXXXXXXXXXr C.).{.(.-.o.*...p.n.n.n.m.n.m.n.y.o.*.O.Z.Q.b.h.1.8 XXXXXXXXXXXXXXXXXXXXXXXXXXXXXXXXXXXX",
"XXXXXXXXXXXXXXXXXXXXXXXXXXXX. Y.[.&./ $.c.n.x.x.x.x.n.x.n.x.x.n.x.x.x.n.k.m / $.x.7.@ XXXXXXXXXXXXXXXXXXXXXXXXXXXXXXXXXX",
"XXXXXXXXXXXXXXXXXXXXXXXXXXr Y.E.S.i.p.j.x.n.n.n.x.x.m.h.~ z.n.n.n.n.n.n.x.j.g.G.Z.u.6.: XXXXXXXXXXXXXXXXXXXXXXXXXXXXXXXX",
"XXXXXXXXXXXXXXXXXXXXXXXXr P.{.L.E x.n.z.n.x.x.x.n.x.z.G.;.G.z.n.n.x.n.n.x.z.n.x.-.G.c.1.8 XXXXXXXXXXXXXXXXXXXXXXXXXXXXXX",
"XXXXXXXXXXXXXXXXXXXXXX. Y.[.+.y.x.n.y.$.z.n.x.n.n.x.L J.{.N.-.n.n.x.x.n.z.o.u.n.n.A...v.6.X XXXXXXXXXXXXXXXXXXXXXXXXXXXX",
"XXXXXXXXXXXXXXXXXXXXS U.E.I.u.c.n.n.A.] =.j.m.m.f.0.T.). X(.S.Z.c.n.n.j.*.] y.n.n.c.G.G.u.7.t XXXXXXXXXXXXXXXXXXXXXXXXXX",
"XXXXXXXXXXXXXXXXXX  B. XJ.m x.n.n.n.F.[ @.F.c.c.F.%.[. X}..X).%.G.z.c.D.@.[ u.n.n.n.x.X.A.n.B O XXXXXXXXXXXXXXXXXXXXXXXX",
"XXXXXXXXXXXXXXXXXX  2.}.J.L x.n.n.n.q.@.[.E.{ ( S.{.}. X}.}.}.{.D.( ' Q.).+.y.n.x.n.v.o.A.n.M X XXXXXXXXXXXXXXXXXXXXXXXX",
"XXXXXXXXXXXXXXXXXX  2. XJ.$.x.n.x.n.0.@.}.{.R.T.). X X}.}.}. X X_.T.R.{.{.+.w.n.x.n.v.$.Q j.h X XXXXXXXXXXXXXXXXXXXXXXXX",
"XXXXXXXXXXXXXXXXXX  2.|.J.$.v.n.x.n.y.;._. X X X X}.}.}.}.}.}.}. X.X X}.Q.:.i.n.n.n.v.$.o.8.0 X XXXXXXXXXXXXXXXXXXXXXXXX",
"XXXXXXXXXXXXXXXXXXX B M.Z.$.x.n.x.n.n.h.*.R. X X}.}.}.}.}.}.}.}.}.}. XT.;.h.x.x.x.n.v.$.O.9.w X XXXXXXXXXXXXXXXXXXXXXXXX",
"XXXXXXXXXXXXXXXXXXX <.m.>.O.x.n.x.x.m.v.( K..X X X X X X X X X X X.X.XV.' x.n.n.n.n.v.$.J 9.w X XXXXXXXXXXXXXXXXXXXXXXXX",
"XXXXXXXXXXXXXXXXXXX B c.A.-.c.x.n.x.n.z.*.T.{.[.[.[.{.{.[.[.[.[.[.{.{.S.=.v.n.x.x.x.h.:.O.8.0 . XXXXXXXXXXXXXXXXXXXXXXXX",
"XXXXXXXXXXXXXXXXXXX 4 c j.h.o.g.m.x.n.x.v.H.+.#.#.#.@.#.#.#.#.#.#.@.@.G.v.x.x.n.m.g.o.0.R i < X XXXXXXXXXXXXXXXXXXXXXXXX",
"XXXXXXXXXXXXXXXXXX. > / N.u.F.A.G.x.n.n.m.j.q.q.q.q.q.q.q.q.q.q.q.q.Z.h.n.n.n.n.s.0.$.R X.` 1 . XXXXXXXXXXXXXXXXXXXXXXXX",
"XXXXXXXXXXXXXXXXXX. 4 } 6 H x.A.$.c.x.v.x.n.n.n.n.n.n.n.n.n.n.n.n.n.n.n.x.x.x.h.o.L e.k ) n 4 . XXXXXXXXXXXXXXXXXXXXXXXX",
"XXXXXXXXXXXXXXXXXXXXXX< P 3.C i.c.*.| -.x.m.n.n.n.n.x.n.x.n.x.x.x.n.n.m.v.-.o.*.0.U k } k < & XXXXXXXXXXXXXXXXXXXXXXXXXX",
"XXXXXXXXXXXXXXXXXXXXXXX P >.b 4.s.A.A.A.y.G.i.x.n.n.n.n.n.n.n.n.n.x.s.G.y.$.o.O.R A ` =.v X XXXXXXXXXXXXXXXXXXXXXXXXXXXX",
"XXXXXXXXXXXXXXXXXXXXXX+ 6 O.t.b c c.m.c.$.^ o.h.x.x.v.v.v.x.x.x.x.j...] ..e.t.4.k ` X.0.F O XXXXXXXXXXXXXXXXXXXXXXXXXXXX",
"XXXXXXXXXXXXXXXXXXXXXXXX- v y.R _ Z Z W h.x.h.N.o.$.$.$.*.O.$.*.:.-.q.q.Q c z b W R ..j : XXXXXXXXXXXXXXXXXXXXXXXXXXXXXX",
"XXXXXXXXXXXXXXXXXXXXXXXXXX: F O...b d _ u.j.s.A.Z.Z.Z.Z.A.Z.-.o.X.J W W ! A ` } y.~ 6 O   XXXXXXXXXXXXXXXXXXXXXXXXXXXXXX",
"XXXXXXXXXXXXXXXXXXXXXXXXXXXXX u O.9.E } u , z f.n.n.x.x.x.n.c.9.9.Q k , x 9.R X.e.N X XXXXXXXXXXXXXXXXXXXXXXXXXXXXXXXXXX",
"XXXXXXXXXXXXXXXXXXXXXXXXXXXXXX1 5 w b o.3.O.} J Y I Y Y I Y I c x H Q o.X.y.P 1 w 7 XXXXXXXXXXXXXXXXXXXXXXXXXXXXXXXXXXXX",
"XXXXXXXXXXXXXXXXXXXXXXXXXXXXXXXX. . 3 b ! F k d ) _ d f x d f b ` x T V x T t   X . XXXXXXXXXXXXXXXXXXXXXXXXXXXXXXXXXXXX",
"XXXXXXXXXXXXXXXXXXXXXXXXXXXXXXXXXXXXo % # X ; l =.9.o.J 9.o.O.9.*.l & O # # o XXXXXXXXXXXXXXXXXXXXXXXXXXXXXXXXXXXXXXXXXX",
"XXXXXXXXXXXXXXXXXXXXXXXXXXXXXXXXXXXXXX. .   $ 2 e t q q t q q h e 2 X   . . XXXXXXXXXXXXXXXXXXXXXXXXXXXXXXXXXXXXXXXXXXXX",
"XXXXXXXXXXXXXXXXXXXXXXXXXXXXXXXXXXXXXXXXXXXXXX. X X . X X X . X . . XXXXXXXXXXXXXXXXXXXXXXXXXXXXXXXXXXXXXXXXXXXXXXXXXXXX",
"XXXXXXXXXXXXXXXXXXXXXXXXXXXXXXXXXXXXXXXXXXXXXXXXXXXXXXXXXXXXXXXXXXXXXXXXXXXXXXXXXXXXXXXXXXXXXXXXXXXXXXXXXXXXXXXXXXXXXXXX",
"XXXXXXXXXXXXXXXXXXXXXXXXXXXXXXXXXXXXXXXXXXXXXXXXXXXXXXXXXXXXXXXXXXXXXXXXXXXXXXXXXXXXXXXXXXXXXXXXXXXXXXXXXXXXXXXXXXXXXXXX",
"XXXXXXXXXXXXXXXXXXXXXXXXXXXXXXXXXXXXXXXXXXXXXXXXXXXXXXXXXXXXXXXXXXXXXXXXXXXXXXXXXXXXXXXXXXXXXXXXXXXXXXXXXXXXXXXXXXXXXXXX",
"XXXXXXXXXXXXXXXXXXXXXXXXXXXXXXXXXXXXXXXXXXXXXXXXXXXXXXXXXXXXXXXXXXXXXXXXXXXXXXXXXXXXXXXXXXXXXXXXXXXXXXXXXXXXXXXXXXXXXXXX",
"XXXXXXXXXXXXXXXXXXXXXXXXXXXXXXXXXXXXXXXXXXXXXXXXXXXXXXXXXXXXXXXXXXXXXXXXXXXXXXXXXXXXXXXXXXXXXXXXXXXXXXXXXXXXXXXXXXXXXXXX",
"XXXXXXXXXXXXXXXXXXXXXXXXXXXXXXXXXXXXXXXXXXXXXXXXXXXXXXXXXXXXXXXXXXXXXXXXXXXXXXXXXXXXXXXXXXXXXXXXXXXXXXXXXXXXXXXXXXXXXXXX",
"XXXXXXXXXXXXXXXXXXXXXXXXXXXXXXXXXXXXXXXXXXXXXXXXXXXXXXXXXXXXXXXXXXXXXXXXXXXXXXXXXXXXXXXXXXXXXXXXXXXXXXXXXXXXXXXXXXXXXXXX",
"XXXXXXXXXXXXXXXXXXXXXXXXXXXXXXXXXXXXXXXXXXXXXXXXXXXXXXXXXXXXXXXXXXXXXXXXXXXXXXXXXXXXXXXXXXXXXXXXXXXXXXXXXXXXXXXXXXXXXXXX",
"XXXXXXXXXXXXXXXXXXXXXXXXXXXXXXXXXXXXXXXXXXXXXXXXXXXXXXXXXXXXXXXXXXXXXXXXXXXXXXXXXXXXXXXXXXXXXXXXXXXXXXXXXXXXXXXXXXXXXXXX",
"XXXXXXXXXXXXXXXXXXXXXXXXXXXXXXXXXXXXXXXXXXXXXXXXXXXXXXXXXXXXXXXXXXXXXXXXXXXXXXXXXXXXXXXXXXXXXXXXXXXXXXXXXXXXXXXXXXXXXXXX",
"XXXXXXXXXXXXXXXXXXXXXXXXXXXXXXXXXXXXXXXXXXXXXXXXXXXXXXXXXXXXXXXXXXXXXXXXXXXXXXXXXXXXXXXXXXXXXXXXXXXXXXXXXXXXXXXXXXXXXXXX",
"XXXXXXXXXXXXXXXXXXXXXXXXXXXXXXXXXXXXXXXXXXXXXXXXXXXXXXXXXXXXXXXXXXXXXXXXXXXXXXXXXXXXXXXXXXXXXXXXXXXXXXXXXXXXXXXXXXXXXXXX"
};
