/* XPM */
static char *result[] = {
/* columns rows colors chars-per-pixel */
"65 60 94 2 ",
"   c #000002",
".  c #00000C",
"X  c #000012",
"o  c #020419",
"O  c #040A19",
"+  c #0B0B19",
"@  c #120E1B",
"#  c #17111B",
"$  c #19121B",
"%  c #23031D",
"&  c #21171D",
"*  c #271A1D",
"=  c #291B1E",
"-  c #311F20",
";  c #342320",
":  c #3C2524",
">  c #3F2925",
",  c #442B26",
"<  c #482A27",
"1  c #4A2D29",
"2  c #5B2E2F",
"3  c #4A3027",
"4  c #4C3228",
"5  c #4F3B29",
"6  c #503529",
"7  c #563C2C",
"8  c #5C3B2E",
"9  c #5E3230",
"0  c #713E37",
"q  c #56402B",
"w  c #5D462D",
"e  c #60482F",
"r  c #634231",
"t  c #6B4434",
"y  c #644B30",
"u  c #6C4A34",
"i  c #724C37",
"p  c #744338",
"a  c #7A4B3B",
"s  c #6B5134",
"d  c #725635",
"f  c #7C523B",
"g  c #7A5C39",
"h  c #7E603A",
"j  c #814F3E",
"k  c #83533E",
"l  c #855A3E",
"z  c #885A3F",
"x  c #82633B",
"c  c #8B693F",
"v  c #8B5641",
"b  c #8B5A41",
"n  c #935D44",
"m  c #8F6043",
"M  c #946244",
"N  c #9A6547",
"B  c #926E43",
"V  c #996A46",
"C  c #9D6649",
"Z  c #9E6948",
"A  c #957044",
"S  c #997445",
"D  c #9E7847",
"F  c #9E7148",
"G  c #9F7848",
"H  c #A0674A",
"J  c #A46D4B",
"K  c #A86E4D",
"L  c #A4724B",
"P  c #AB734E",
"I  c #A37B4A",
"U  c #AD7A4F",
"Y  c #B07651",
"T  c #B27C51",
"R  c #AD844D",
"E  c #B1864F",
"W  c #B58252",
"Q  c #B98454",
"!  c #B68B51",
"~  c #BD8A55",
"^  c #BE9155",
"/  c #C18D57",
"(  c #C38C58",
")  c #C39457",
"_  c #C59258",
"`  c #C9955A",
"'  c #CD9B5B",
"]  c #D09E5D",
"[  c #D4A25E",
"{  c #D7A460",
"}  c #D9A661",
"|  c #DDA962",
" . c #E0AB64",
".. c None",
/* pixels */
"..................................................................................................................................",
"..................................................................................................................................",
"..................................................................................................................................",
"..................................................................................................................................",
"..................................................................................................................................",
"..................................................................................................................................",
"..................................................................................................................................",
"..................................................................................................................................",
"..................................................................................................................................",
"..................................................................................................................................",
"..................................................................................................................................",
"..................................................................................................................................",
"....................................................................................# ............................................",
"................................................  ................................h E h ..........................................",
"..............................................q w ..............................  G [ G   ........................................",
"............................................# R ~ e   ..........................  B [ G   ........................................",
"............................................$ ) [ s   ..........................g ! [ B   ........................................",
"............................................$ ! ' e   ....................# . w ) | [ c . o ......................................",
"............................................$ ! ' l % .   . .           d R W ! [ | [ c   X ......................................",
"............................................# ! ] n 2 4 4 4 3 7 e e e 5 I } | { [ { [ A % $ ......................................",
"............................................$ ! ] k 0 Z Z N n P ` ' ) ) ' [ [ [ [ [ [ Q z , . ....................................",
"............................................# E ] R V N H P Q ' [ | | [ { [ [ [ [ [ [ ~ N ,   ....................................",
"............................................# E [ | ! p v T ' [ [ [ [ [ [ [ [ [ ] { [ ~ M 4 . ....................................",
"............................................  R | | ~ b U ' [ [ [ [ [ [ ] [ [ [ ] { [ ' Q V t # ..................................",
"............................................e ! } [ ` T ) ] [ [ [ [ [ ] [ [ [ ] [ [ [ } ] Q b @ ..................................",
"........................................  x ) [ [ [ ] ' Q W ' [ [ [ [ [ [ [ [ [ [ ' [ [ ' T a X ..................................",
"........................................  A } | [ [ [ [ T J ' } [ [ [ [ [ [ [ [ [ [ [ [ ' / L u , ................................",
"........................................  B ] { [ [ { [ W P ' [ [ [ [ [ [ ] [ [ [ [ [ [ [ { _ J t . ..............................",
"......................................q G ) ] } [ [ [ [ ` ~ Q ( [ [ [ [ [ [ [ [ [ [ [ [ [ { _ J N f * ............................",
"....................................  y '  .[ ' ' [ [ [ } ' L T [ [ ] [ [ ] [ [ [ [ [ [ [ { _ U Y J t = ..........................",
"....................................  5 ) | [ ~ W ' [ [ [ ' L W [ [ [ [ [ [ [ ] [ ' [ [ [ [ [ ' Q H J f # ........................",
"....................................d I ' } [ I N ' { [ [ [ ~ Q ) ] [ [ ] [ [ [ [ [ [ [ [ [ { [ Q Z Y M o ........................",
"..................................$ E | [ [ [ V f ) } [ [ [ [ / L / [ [ [ [ [ [ [ [ [ [ [ [ [ [ Q H P b # ........................",
"..................................  E  .[ [ [ V p U ` [ [ [ } ~ C _ [ [ [ [ [ [ [ [ [ ] [ [ [ [ ' ) U N z 8 ......................",
"..................................w ^ [ [ [ [ F p n Q [ [ [ { _ U ~ ' [ [ [ [ [ [ ] [ [ [ [ [ [ [ ' U K P a . ....................",
"..............................  x ) [ [ [ [ [ G p N ~ [ [ [ [ ] ' F m ' | [ [ [ [ [ [ [ ] [ [ [ ~ P K K L i X ....................",
"..............................  A } } [ [ [ | S 9 N ( [ [ [ [ { [ L a U ^ _ ] [ [ [ [ [ [ [ ] _ U H P P P i X ....................",
"..............................  B [ { [ [ [ [ x % n ~ ] [ [ [ { [ ~ N a k L ` [ [ [ [ [ [ [ / J J J J P K u X + ..................",
"............................q I ) [ { [ [ ^ m 7 o 8 M Q ' [ [ [ [ ' ~ N j k P ~ Q _ [ [ [ / Y J P L f t t 4 X # ..................",
"..........................  y ' | [ [ [ [ R .   +   8 H _ { [ [ [ } ] T n a v C C W ' [ ` P H P J b ;   X X $ $ ..................",
"..........................  6 ) } { [ { } R o . + . t J _ { [ ] [ [ ] T H H k a J P U T U P P P k ; $ o + # # $ ..................",
"..........................d I ' { { [ [ ' I $ X + X t P ` { [ { [ ' ~ P J P M k n C J K J b z z 4   o $ # # # # ..................",
"........................$ R { ] [ { { ' T k # X + X t J _ { [ { [ Q J J K L P Z a k J P N 3 X # $ # # # # # # ....................",
"........................$ I ` ( ~ Q ( T f < # O @ ..4 u P / ~ ~ ~ T K P P P Y J j t i i r * X X O $ # # ..........................",
"........................# a N M M M N b ; . # $ $ ....X a N M M n N V C N V Z M a < X . X O $ $ # # # ............................",
"........................$ , 4 3 3 1 4 , & O # $ # ....@ > 4 4 3 3 3 4 3 3 4 3 3 : = + O + # $ # # # ..............................",
"........................# X . X X X . X + $ # # ......# o . X X X . X X X . X X X O $ $ $ # # ....................................",
"............................# # # $ $ # $ # # ............# # # # # # # $ $ # # $ @ # # $ # ......................................",
"............................$ # # # # # # # # ............# # # # # # # # # # # # # # ............................................",
"............................# $ # # # # # # # ............$ $ # # # # # # # # # # # # ............................................",
"..................................................................................................................................",
"..................................................................................................................................",
"..................................................................................................................................",
"..................................................................................................................................",
"..................................................................................................................................",
"..................................................................................................................................",
"..................................................................................................................................",
"..................................................................................................................................",
"..................................................................................................................................",
".................................................................................................................................."
};
