/* XPM */
static char *result[] = {
/* columns rows colors chars-per-pixel */
"43 65 84 1 ",
"  c #000001",
". c #0B0203",
"X c #040608",
"o c #0B0609",
"O c #0A0A0A",
"+ c #130203",
"@ c #1B0204",
"# c #14060A",
"$ c #1B0609",
"% c #121313",
"& c #1C1D1D",
"* c #230205",
"= c #26070C",
"- c #2B060C",
"; c #26080C",
": c #2D080E",
"> c #370000",
", c #3A0000",
"< c #34070E",
"1 c #32080F",
"2 c #350910",
"3 c #3B0911",
"4 c #2A191B",
"5 c #212222",
"6 c #262A29",
"7 c #2C2C2C",
"8 c #302B2B",
"9 c #353838",
"0 c gray23",
"q c #4D0000",
"w c #490612",
"e c #430A13",
"r c #4C0B16",
"t c #510C17",
"y c #540D18",
"u c #5C0E1B",
"i c #48171D",
"p c #4A181E",
"a c #7B0000",
"s c #630F1D",
"d c #680F1E",
"f c #65101E",
"g c #6A101F",
"h c #521920",
"j c #730F21",
"k c #6E1120",
"l c #741222",
"z c #7C1324",
"x c #413F40",
"c c #414242",
"v c #4E4F4F",
"b c #535453",
"n c #595A5A",
"m c #666767",
"M c #6B6B6B",
"N c #716E6F",
"B c #797979",
"V c #840000",
"C c #8C0824",
"Z c #821426",
"A c #861528",
"S c #8B1629",
"D c #8F1D2E",
"F c #91172B",
"G c #94182D",
"H c #9B1A2F",
"J c #9E1A30",
"K c #A21B31",
"L c #A91D34",
"P c #807F7F",
"I c gray56",
"U c gray58",
"Y c #9B9B9B",
"T c gray64",
"R c #B2B1B1",
"E c #BBBBBB",
"W c #C3C3C3",
"Q c #CBCCCB",
"! c #D3D3D3",
"~ c gainsboro",
"^ c gray93",
"/ c #F3F3F3",
"( c #FDFDFD",
") c None",
/* pixels */
")))))))))))))))))))))))))))))))))))))))))))",
")))))))))))))))))))))))))))))))))))))))))))",
")))))))))))))-=#oOooooooooo))))))))))))))))",
")))))))))))))errrtrrrtttttyr)))))))))))))))",
"))))))))))))euzZSAASSSSSSGGzt))))))))))))))",
")))))))))))1uzSHKKKKKKKKKKKGk;)))))))))))))",
"))))))))))euzSHKLLLGZZZAZZZASly))))))))))))",
")))))))))1uzSHKKKLJl313e332fGJk#)))))))))))",
"))))))))ruzFHKKLKGztX  XX  rzSSlu))))))))))",
")))))))3uzSHKKKLHle*  ...  *2fGHk#)))))))))",
"))))))=2dZGKLKJGZt           ezGAgy))))))))",
"))))))):uzFJKLGle-           =3fSGl3)))))))",
"))))))etgzSJLKGuXX     X  X    rGLA3O))))))",
")))))eslzZFKKLGs$%     % O%    hDJZ3o))))))",
"))))=ejZAZSHKKGs@ &nNbO    0mMxqCJZ3X))))))",
"))))=egZAAASGJDk+ cR~T5    BQQP,VKZ2o))))))",
"))));ekzAzzzSJGk. b~(Q7    U/(Y@VKZ2o))))))",
"))))=ekZludzSKGd. b~(!7    Y((T@VKZ3X))))))",
"))))=ekZd3tzFKGs+ v!(W7    I^^U*VJZ2X))))))",
"))));elZg<rlFKHs  9YEU&    MRRN,aDl3$))))))",
"))));elZd3yzFKGd+ X575     %784wjZk2;))))))",
")))))3uku3uzSGFZki     % O%    plzk3-))))))",
"))))))ere3szSZSHGk$           .elZk3;))))))",
")))))))==<ydzzSHHlt<+        -wflku3)))))))",
")))))))))))edzSSAZly=       Xekzgre))))))))",
")))))))))))#rkzklZZkt<+ .  -efzlt$)))))))))",
")))))))))))))rreylZzgt#XoX 3gkur)))))))))))",
")))))))))))))ee3tkZDAlutyttkAAf2)))))))))))",
")))))))))))orskgglZFHFSSSSSSHGzfr$)))))))))",
")))))))))))3fzSAAZAGKKLKKLKKLJGZg32))))))))",
")))))))))2tsZGJHGGHJKKLKLLKLKJHGZgt3)))))))",
")))))))))2uzFJKJKKKKKKKKJJJKKKLHGzf3;))))))",
")))))))))2szFHLKKLKKKKKKKKKKKKLJGzf3-))))))",
")))))))))1ulSHKKJJKKKJKJKKJKKHLJSzf2;))))))",
")))))))))=dAHKKKKKKJKJKKJKJKJKKHHSk3$))))))",
")))))))))=kGLKJKJKKKKKKKKKKKKKKJLHz1o))))))",
"))))))))rtZJLKKKKJKKKJKJKJLHKJKKLJz2X))))))",
")))))))3ylSJKKJKKKJKKKKKKKKKKKKKKJz:)))))))",
"))))))=3gZGJKKKJKKKKKKLHHHJLKKKKLJZt3))))))",
"))))))=3dzFJKKKKKKJKHLHGSFHKKKHKKJFlue)))))",
"))))));3szFJKKKKJKKKJKJGZSHKKKJKKJGAge;))))",
"))))));3dzFHKKKJKKKKKLLGZSJKKKKKLJGZge;))))",
"))))));2szFKKKKKKJKHKJHGzSHKKKKKKJGzfe;))))",
"))))))):szFKLKKKKKKLLHGlsgAHKKKKHSSZge;))))",
")))))):3szFHKKKKKKKKHGZs3tlSJKKJSzZZge;))))",
")))))3ydlZSSHJKGGJJHGSZs2tzASGKKGzzZge-))))",
"))))=3gZZZzZSJHSAHJGZZZg3yzZZSHKSzAZg3=))))",
"))))-elZAZZzAGGFSFGSzzgt-eslzZFGSZZZge=))))",
"))));egZAZZZZZSHJSZAZde-.@3ulAAZZZAzke=))))",
"))));3kZzllZZzZGGSzzkt=   $tlAZzllzZke;))))",
"))));rlAlruzZZAASAzfr1+  +=uzAAzuekZle;))))",
")))))3dlu:yzZzzzzAZu=    +*rkzZzurklse)))))",
"))))))rur2uZZsuzSSZs2+    .<eszAZlgur))))))",
"))))))):=<uzdeedzZlu2*      @ekzZzu=)))))))",
"))))))))23tuy))yuuut31)))  +=eyudut))))))))",
")))))))))3311))111:23))))) @<321:2)))))))))",
")))))))))))))))+@+$-)))))))+*==))))))))))))",
")))))))))))))))    )))))))))  )))))))))))))",
"))))))))))))))))   )))))))))  )))))))))))))",
")))))))))))))))))  )))))))))  )))))))))))))",
")))))))))))))))))  )))))))))  )))))))))))))",
")))))))))))))))))  )))))))))  )))))))))))))",
")))))))))))))))))  )))))))))  )))))))))))))",
")))))))))))))))))))))))))))))))))))))))))))",
")))))))))))))))))))))))))))))))))))))))))))"
};
