/* XPM */
static char *result[] = {
/* columns rows colors chars-per-pixel */
"61 65 80 1 ",
"  c #010101",
". c #0B0203",
"X c #030906",
"o c #030C0B",
"O c #0B0B0B",
"+ c #130305",
"@ c #1B0305",
"# c #170609",
"$ c #1A0609",
"% c #130A0B",
"& c #131212",
"* c #1B1919",
"= c #220407",
"- c #24060A",
"; c #2A060C",
": c #2C080D",
"> c #32070E",
", c #32080F",
"< c #330710",
"1 c #340810",
"2 c #3B0911",
"3 c #281E1D",
"4 c #3D1113",
"5 c #3D141A",
"6 c #301918",
"7 c #1C2424",
"8 c #2A2A2A",
"9 c #3B3C3B",
"0 c #40090A",
"q c #440A13",
"w c #4B0B15",
"e c #470F18",
"r c #4F0C18",
"t c #510D17",
"y c #540C18",
"u c #5C0E1B",
"i c #54171F",
"p c #7D0002",
"a c #630F1D",
"s c #680F1E",
"d c #720A1C",
"f c #66101E",
"g c #6A101F",
"h c #6D1120",
"j c #741222",
"k c #7D1325",
"l c #711925",
"z c #413C3D",
"x c #424343",
"c c #474848",
"v c #4E4E4E",
"b c #555555",
"n c #595858",
"m c #6D6C6C",
"M c #767676",
"N c #7D7E7E",
"B c #87001D",
"V c #821426",
"C c #861528",
"Z c #8C162A",
"A c #8E1A2C",
"S c #91172B",
"D c #94182D",
"F c #9B1A2F",
"G c #9F1B30",
"H c #A11D2F",
"J c #A21B31",
"K c #A91D34",
"L c #949292",
"P c #9D9D9D",
"I c #ACABAB",
"U c #BBBABA",
"Y c #C0BEBE",
"T c gray78",
"R c #CDCDCD",
"E c gray83",
"W c #DADADA",
"Q c #F3F3F3",
"! c white",
"~ c None",
/* pixels */
"~~~~~~~~~~~~~~~~~~~~~~~~~~~~~~~~~~~~~~~~~~~~~~~~~~~~~~~~~~~~~",
"~~~~~~~~~~~~~~~~~~~~~~~~~~~~~~~~~~~~~~~~~~~~~~~~~~~~~~~~~~~~~",
"~~~~~~~~~~~~~~~~~~~~~~~~:-$$$$######$~~~~~~~~~~~~~~~~~~~~~~~~",
"~~~~~~~~~~~~~~~~~~~~~~~qyassafhfghhhfr~~~~~~~~~~~~~~~~~~~~~~~",
"~~~~~~~~~~~~~~~~~~~~~~;yjZDGDFGGFFFHGh=~~~~~~~~~~~~~~~~~~~~~~",
"~~~~~~~~~~~~~~~~~~~~~2ykZGKKKGDSDFDDDChq~~~~~~~~~~~~~~~~~~~~~",
"~~~~~~~~~~~~~~~~~~~~:yjZGJJKJCuruuuruZGh$~~~~~~~~~~~~~~~~~~~~",
"~~~~~~~~~~~~~~~~~~~qyjZFJJJGZh.X.OO -jDZfq~~~~~~~~~~~~~~~~~~~",
"~~~~~~~~~~~~~~~~~~1ujZFJJKJCy;.. ...@>uZFj$~~~~~~~~~~~~~~~~~~",
"~~~~~~~~~~~~~~~~~~,sCDJKJFZs@       . ;jDZar~~~~~~~~~~~~~~~~~",
"~~~~~~~~~~~~~~~~~~:ukDFJJCi;          @>uZDj:~~~~~~~~~~~~~~~~",
"~~~~~~~~~~~~~~~~~wygkSHKJk-o.%*O O OX%*o4ZJV:~~~~~~~~~~~~~~~~",
"~~~~~~~~~~~~~~~~<ukVkZJKJk2o     X O    eAHk:~~~~~~~~~~~~~~~~",
"~~~~~~~~~~~~~~~~>skCVZDJJV2XXMPMX.o 8NPm4BFk:~~~~~~~~~~~~~~~~",
"~~~~~~~~~~~~~~~~<aVVVVVDJV2oOUQUOO& cTQI3pFk:~~~~~~~~~~~~~~~~",
"~~~~~~~~~~~~~~~~<sVkjjkSJVqoOE!ROO* bW!U7pHk;~~~~~~~~~~~~~~~~",
"~~~~~~~~~~~~~~~~<gCjqukDJC2oOR!TOO* vE!U7pHk:~~~~~~~~~~~~~~~~",
"~~~~~~~~~~~~~~~~:uhu,tkFJV<XXPEPo.O 9IRL6pDj:~~~~~~~~~~~~~~~~",
"~~~~~~~~~~~~~~~~~~qq1ukDJV:X xnxX.  *cnz0dVf,~~~~~~~~~~~~~~~~",
"~~~~~~~~~~~~~~~~~~;-1aVSDZji+   XO OO   5lVg,~~~~~~~~~~~~~~~~",
"~~~~~~~~~~~~~~~~~~~~2sVCVDGk,.O.     X%.2jVg<~~~~~~~~~~~~~~~~",
"~~~~~~~~~~~~~~~~~~~~~tsjkSGCu2+       =rfjgt,~~~~~~~~~~~~~~~~",
"~~~~~~~~~~~~~~~~~~~~~~2sCCCCkh1@. . ++2jVg2~~~~~~~~~~~~~~~~~~",
"~~~~~~~~~~~~~~~~~~~~~qyssaujkju2    +quhgt~~~~~~~~~~~~~~~~~~~",
"~~~~~~~~~~~~~~~~~~~~>sks2;2aVCka,>1:2gkf2~~~~~~~~~~~~~~~~~~~~",
"~~~~~~~~~~~~~~~~~~~wuVDZjggVZDSCjjjjjZSkuq~~~~~~~~~~~~~~~~~~~",
"~~~~~~~~~~~~~~~~~~1akDJJGJHJJJGJGJFJFJFDku1~~~~~~~~~~~~~~~~~~",
"~~~~~~~~~~~~~~~~~~:ukDJJJKJJJJJJJKKJJKJDkf2~~~~~~~~~~~~~~~~~~",
"~~~~~~~~~~~~~~~~~~1akSJJJJJJGJJJGJGJJJJDku1~~~~~~~~~~~~~~~~~~",
"~~~~~~~~~~~~~~~~~rukZFGJJJJGJJJGJJJJJJHFZh1~~~~~~~~~~~~~~~~~~",
"~~~~~~~~~~~~~~~~,ukSHJJJJJJJGGJJJGGJJJJJGj,~~~~~~~~~~~~~~~~~~",
"~~~~~~~~~~~~~~~~>sVDJJJJJJGJJJJJJJJJJJJKGj-~~~~~~~~~~~~~~~~~~",
"~~~~~~~~~~~~~~~~<ukDJJJJJJJJJJGJJJJJJGJJFj>~~~~~~~~~~~~~~~~~~",
"~~~~~~~~~~~~~~~~;ujDGJGGGJGGJJJGDFJJJJJKHZaw~~~~~~~~~~~~~~~~~",
"~~~~~~~~~~~~~~~~<ukDGJJJJJJJJJJZVZJJJJJJFSku,~~~~~~~~~~~~~~~~",
"~~~~~~~~~~~~~~~rfjkSJJJJJJJJJGSjukSGJJJDSZVa<~~~~~~~~~~~~~~~~",
"~~~~~~~~~~~~~~,akCkZGJJJGGJJJDVu2uCDJJJZkCka<~~~~~~~~~~~~~~~~",
"~~~~~~~~~~~~~~:fVCVCSFJFZFJGZZVu1uCZSGJSkCVs,~~~~~~~~~~~~~~~~",
"~~~~~~~~~~~~~~,ukVVkkSGDVZGDVVVu2fVkkFJSVVka,~~~~~~~~~~~~~~~~",
"~~~~~~~~~~~~~~,akCCVkCSDDDSZVjaq=qujCZZZCjuw~~~~~~~~~~~~~~~~~",
"~~~~~~~~~~~~~~,ukCkVVkkSFDVkVs>. .2gVCkCka,~~~~~~~~~~~~~~~~~~",
"~~~~~~~~~~~~~~,fVkahVVVZSZVjuq@  .2hCCkgyq<~~~~~~~~~~~~~~~~~~",
"~~~~~~~~~~~~~~,aVh2ykCkkkCVf1..  @2fVCku,12~~~~~~~~~~~~~~~~~~",
"~~~~~~~~~~~~~~~ruu2qaaajkZCg1.    =qukCkgu2~~~~~~~~~~~~~~~~~~",
"~~~~~~~~~~~~~~~~<2221:<ukCks2@     +2skZVa,~~~~~~~~~~~~~~~~~~",
"~~~~~~~~~~~~~~~~~~~~~~~ragat2=     =2tahar~~~~~~~~~~~~~~~~~~~",
"~~~~~~~~~~~~~~~~~~~~~~~~<1111;     ;2211>~~~~~~~~~~~~~~~~~~~~",
"~~~~~~~~~~~~~~~~~~~~~~~~~~~==@     =~~~~~~~~~~~~~~~~~~~~~~~~~",
"~~~~~~~~~~~~~~~~~~~~~~~~~~~~       ~~~~~~~~~~~~~~~~~~~~~~~~~~",
"~~~~~~~~~~~~~~~~~~~~~~~~~~~~~     ~~~~~~~~~~~~~~~~~~~~~~~~~~~",
"~~~~~~~~~~~~~~~~~~~~~~~~~~~~~    ~~~~~~~~~~~~~~~~~~~~~~~~~~~~",
"~~~~~~~~~~~~~~~~~~~~~~~~~~~~    ~~~~~~~~~~~~~~~~~~~~~~~~~~~~~",
"~~~~~~~~~~~~~~~~~~~~~~~~~~~~   ~~~~~~~~~~~~~~~~~~~~~~~~~~~~~~",
"~~~~~~~~~~~~~~~~~~~~~~~~~~~~~   ~~~~~~~~~~~~~~~~~~~~~~~~~~~~~",
"~~~~~~~~~~~~~~~~~~~~~~~~~~~~~~ ~~~~~~~~~~~~~~~~~~~~~~~~~~~~~~",
"~~~~~~~~~~~~~~~~~~~~~~~~~~~~~~~~~~~~~~~~~~~~~~~~~~~~~~~~~~~~~",
"~~~~~~~~~~~~~~~~~~~~~~~~~~~~~~~~~~~~~~~~~~~~~~~~~~~~~~~~~~~~~",
"~~~~~~~~~~~~~~~~~~~~~~~~~~~~~~~~~~~~~~~~~~~~~~~~~~~~~~~~~~~~~",
"~~~~~~~~~~~~~~~~~~~~~~~~~~~~~~~~~~~~~~~~~~~~~~~~~~~~~~~~~~~~~",
"~~~~~~~~~~~~~~~~~~~~~~~~~~~~~~~~~~~~~~~~~~~~~~~~~~~~~~~~~~~~~",
"~~~~~~~~~~~~~~~~~~~~~~~~~~~~~~~~~~~~~~~~~~~~~~~~~~~~~~~~~~~~~",
"~~~~~~~~~~~~~~~~~~~~~~~~~~~~~~~~~~~~~~~~~~~~~~~~~~~~~~~~~~~~~",
"~~~~~~~~~~~~~~~~~~~~~~~~~~~~~~~~~~~~~~~~~~~~~~~~~~~~~~~~~~~~~",
"~~~~~~~~~~~~~~~~~~~~~~~~~~~~~~~~~~~~~~~~~~~~~~~~~~~~~~~~~~~~~",
"~~~~~~~~~~~~~~~~~~~~~~~~~~~~~~~~~~~~~~~~~~~~~~~~~~~~~~~~~~~~~"
};
