/* XPM */
static char *result[] = {
/* columns rows colors chars-per-pixel */
"61 65 80 1 ",
"  c #010101",
". c #0B0203",
"X c #030906",
"o c #020C0B",
"O c #0B0B0B",
"+ c #130304",
"@ c #1B0305",
"# c #170609",
"$ c #1A0609",
"% c #130A0B",
"& c #131212",
"* c #1B1919",
"= c #220407",
"- c #24060A",
"; c #2B060C",
": c #2C080E",
"> c #32070E",
", c #3D060F",
"< c #32080F",
"1 c #3D0710",
"2 c #340810",
"3 c #3A0911",
"4 c #281E1D",
"5 c #3D1113",
"6 c #3C141A",
"7 c #301918",
"8 c #1C2424",
"9 c #2A2A2A",
"0 c #3B3C3B",
"q c #40090A",
"w c #450A14",
"e c #4B0B15",
"r c #4F0C18",
"t c #510D17",
"y c #540C18",
"u c #5C0E1B",
"i c #54171F",
"p c #7D0002",
"a c #630F1D",
"s c #680F1E",
"d c #720B1C",
"f c #66101E",
"g c #6A101F",
"h c #6D1120",
"j c #741222",
"k c #7D1325",
"l c #711925",
"z c #413C3D",
"x c #424343",
"c c #474848",
"v c #4E4E4E",
"b c #545555",
"n c #595858",
"m c #6D6C6C",
"M c #767676",
"N c #7D7E7E",
"B c #87001D",
"V c #821426",
"C c #851528",
"Z c #8C162A",
"A c #8E1A2C",
"S c #91172B",
"D c #94182D",
"F c #9B1A2F",
"G c #9E1B30",
"H c #A11C2F",
"J c #A21B31",
"K c #A91D34",
"L c #949292",
"P c #9D9D9D",
"I c #ACABAB",
"U c #BBBABA",
"Y c #C0BEBE",
"T c gray78",
"R c #CDCDCD",
"E c gray83",
"W c #DADADA",
"Q c #F3F3F3",
"! c white",
"~ c None",
/* pixels */
"~~~~~~~~~~~~~~~~~~~~~~~~~~~~~~~~~~~~~~~~~~~~~~~~~~~~~~~~~~~~~",
"~~~~~~~~~~~~~~~~~~~~~~~~~~~~~~~~~~~~~~~~~~~~~~~~~~~~~~~~~~~~~",
"~~~~~~~~~~~~~~~~~~~~~~~~##$#####$$$;:~~~~~~~~~~~~~~~~~~~~~~~~",
"~~~~~~~~~~~~~~~~~~~~~~~rhhhgffhfsssuyw~~~~~~~~~~~~~~~~~~~~~~~",
"~~~~~~~~~~~~~~~~~~~~~~=hGGGGGGGGDFDZju:~~~~~~~~~~~~~~~~~~~~~~",
"~~~~~~~~~~~~~~~~~~~~~wgCDDDDDDDGKKKFAjt3~~~~~~~~~~~~~~~~~~~~~",
"~~~~~~~~~~~~~~~~~~~~$jFSuruuutuCJKJJFSjy;~~~~~~~~~~~~~~~~~~~~",
"~~~~~~~~~~~~~~~~~~~wfZDj- X.X .fSGJKJFZjtw~~~~~~~~~~~~~~~~~~~",
"~~~~~~~~~~~~~~~~~~$jGZu>@......;yCJKGJGZju2~~~~~~~~~~~~~~~~~~",
"~~~~~~~~~~~~~~~~~rfCDj;         +hZGGJJDVs<~~~~~~~~~~~~~~~~~~",
"~~~~~~~~~~~~~~~~;jFZu:@          ;tCJKJSku;~~~~~~~~~~~~~~~~~~",
"~~~~~~~~~~~~~~~~;kKA5o*&OX OXO*& o-kJKJSkhye~~~~~~~~~~~~~~~~~",
"~~~~~~~~~~~~~~~~:kJAw    O X    XX3VJKJAkkju2~~~~~~~~~~~~~~~~",
"~~~~~~~~~~~~~~~~;lGB5mPN9 O XMPM X1VJGDZVCVs<~~~~~~~~~~~~~~~~",
"~~~~~~~~~~~~~~~~;kHp4IQTc &OOUQUOo1VJDVCCCka2~~~~~~~~~~~~~~~~",
"~~~~~~~~~~~~~~~~;kHp8Y!Wb &OOR!R&o1VJDjjjkVs<~~~~~~~~~~~~~~~~",
"~~~~~~~~~~~~~~~~;kGp8U!Wv &OOR!TOo1VJDkuwjCg<~~~~~~~~~~~~~~~~",
"~~~~~~~~~~~~~~~~:jDp7LRI0 OOOPEPoo>VJFky:agu>~~~~~~~~~~~~~~~~",
"~~~~~~~~~~~~~~~~<fCd,znc&  X xbx  >VJFju2ww~~~~~~~~~~~~~~~~~~",
"~~~~~~~~~~~~~~~~<fVl6   O& %X   +ijZDZVs3--~~~~~~~~~~~~~~~~~~",
"~~~~~~~~~~~~~~~~<fVj,.%X     .OX2kGDVVVs2~~~~~~~~~~~~~~~~~~~~",
"~~~~~~~~~~~~~~~~<ygjfe=       +3uZGDkjgt~~~~~~~~~~~~~~~~~~~~~",
"~~~~~~~~~~~~~~~~~~3gVh3++ . .+2fkCVCVs3~~~~~~~~~~~~~~~~~~~~~~",
"~~~~~~~~~~~~~~~~~~~yggfw+    1ajVjuasauw~~~~~~~~~~~~~~~~~~~~~",
"~~~~~~~~~~~~~~~~~~~~3fkg3;<;2ukCVa3-3hka>~~~~~~~~~~~~~~~~~~~~",
"~~~~~~~~~~~~~~~~~~~wykDZjjjjjVDDAVhhjZDVue~~~~~~~~~~~~~~~~~~~",
"~~~~~~~~~~~~~~~~~~<akSGJGGJGGGGJJGGGGGGDku3~~~~~~~~~~~~~~~~~~",
"~~~~~~~~~~~~~~~~~~2sVDJKKJKKKKJJJKKJKKJDka:~~~~~~~~~~~~~~~~~~",
"~~~~~~~~~~~~~~~~~~2ukDGJGJGJJGJGGJJJGJGDka<~~~~~~~~~~~~~~~~~~",
"~~~~~~~~~~~~~~~~~~2hZGGJJGJJJJJGJJGJJJGFZkae~~~~~~~~~~~~~~~~~",
"~~~~~~~~~~~~~~~~~~<jGKGJJJJJJJGJJJJGJJJJJSju<~~~~~~~~~~~~~~~~",
"~~~~~~~~~~~~~~~~~~-jGKGJGJGJJJJJJGJJGJJJJDVf2~~~~~~~~~~~~~~~~",
"~~~~~~~~~~~~~~~~~~>jFKJJJJJJJJJGJJGJJJJJGSka2~~~~~~~~~~~~~~~~",
"~~~~~~~~~~~~~~~~~raVJJJGJJJFSFJKJGJJJGJJJSju-~~~~~~~~~~~~~~~~",
"~~~~~~~~~~~~~~~~2ukSGJJJGJJDVAJJJJJGJJJJFDka2~~~~~~~~~~~~~~~~",
"~~~~~~~~~~~~~~~~>fVZAFJJKFSjajSGJJJJJJJJHSkjfr~~~~~~~~~~~~~~~",
"~~~~~~~~~~~~~~~~2akVkSGKFDVa3uVDGJJGGJJJJZVVka<~~~~~~~~~~~~~~",
"~~~~~~~~~~~~~~~~2fVCkSJFSZVa2uVCSGJFAFJFSVkCVs:~~~~~~~~~~~~~~",
"~~~~~~~~~~~~~~~~2akVVSJDkVVa3ukVVDJZVDGSVkVVku<~~~~~~~~~~~~~~",
"~~~~~~~~~~~~~~~~~rujVZZZVjuw=wajVZADDDSVVVVCka<~~~~~~~~~~~~~~",
"~~~~~~~~~~~~~~~~~~>ukVkCVs3. +2sVkVDJSkVVVkCka<~~~~~~~~~~~~~~",
"~~~~~~~~~~~~~~~~~~2wyhkCCg3.  +wujVZDCVVVhakVg:~~~~~~~~~~~~~~",
"~~~~~~~~~~~~~~~~~~333aVCks3@  .+2sVVkkkVky<dka<~~~~~~~~~~~~~~",
"~~~~~~~~~~~~~~~~~~3uhjVkaw=.    2sVZVjaafw3uur~~~~~~~~~~~~~~~",
"~~~~~~~~~~~~~~~~~~2akCVs3.     @1skCka2:23332~~~~~~~~~~~~~~~~",
"~~~~~~~~~~~~~~~~~~~tagst3=     -3yagae~~~~~~~~~~~~~~~~~~~~~~~",
"~~~~~~~~~~~~~~~~~~~~<<233;     -23>2>~~~~~~~~~~~~~~~~~~~~~~~~",
"~~~~~~~~~~~~~~~~~~~~~~~~~=     +--~~~~~~~~~~~~~~~~~~~~~~~~~~~",
"~~~~~~~~~~~~~~~~~~~~~~~~~~       ~~~~~~~~~~~~~~~~~~~~~~~~~~~~",
"~~~~~~~~~~~~~~~~~~~~~~~~~~~     ~~~~~~~~~~~~~~~~~~~~~~~~~~~~~",
"~~~~~~~~~~~~~~~~~~~~~~~~~~~~    ~~~~~~~~~~~~~~~~~~~~~~~~~~~~~",
"~~~~~~~~~~~~~~~~~~~~~~~~~~~~~    ~~~~~~~~~~~~~~~~~~~~~~~~~~~~",
"~~~~~~~~~~~~~~~~~~~~~~~~~~~~~~   ~~~~~~~~~~~~~~~~~~~~~~~~~~~~",
"~~~~~~~~~~~~~~~~~~~~~~~~~~~~~   ~~~~~~~~~~~~~~~~~~~~~~~~~~~~~",
"~~~~~~~~~~~~~~~~~~~~~~~~~~~~~~ ~~~~~~~~~~~~~~~~~~~~~~~~~~~~~~",
"~~~~~~~~~~~~~~~~~~~~~~~~~~~~~~~~~~~~~~~~~~~~~~~~~~~~~~~~~~~~~",
"~~~~~~~~~~~~~~~~~~~~~~~~~~~~~~~~~~~~~~~~~~~~~~~~~~~~~~~~~~~~~",
"~~~~~~~~~~~~~~~~~~~~~~~~~~~~~~~~~~~~~~~~~~~~~~~~~~~~~~~~~~~~~",
"~~~~~~~~~~~~~~~~~~~~~~~~~~~~~~~~~~~~~~~~~~~~~~~~~~~~~~~~~~~~~",
"~~~~~~~~~~~~~~~~~~~~~~~~~~~~~~~~~~~~~~~~~~~~~~~~~~~~~~~~~~~~~",
"~~~~~~~~~~~~~~~~~~~~~~~~~~~~~~~~~~~~~~~~~~~~~~~~~~~~~~~~~~~~~",
"~~~~~~~~~~~~~~~~~~~~~~~~~~~~~~~~~~~~~~~~~~~~~~~~~~~~~~~~~~~~~",
"~~~~~~~~~~~~~~~~~~~~~~~~~~~~~~~~~~~~~~~~~~~~~~~~~~~~~~~~~~~~~",
"~~~~~~~~~~~~~~~~~~~~~~~~~~~~~~~~~~~~~~~~~~~~~~~~~~~~~~~~~~~~~",
"~~~~~~~~~~~~~~~~~~~~~~~~~~~~~~~~~~~~~~~~~~~~~~~~~~~~~~~~~~~~~"
};
