/* XPM */
static char *result[] = {
/* columns rows colors chars-per-pixel */
"61 65 37 1 ",
"  c #010000",
". c #0C0304",
"X c #030508",
"o c #120305",
"O c #1C0306",
"+ c #1C060A",
"@ c #220307",
"# c #25070C",
"$ c #2D060D",
"% c #24080B",
"& c #2D080E",
"* c #32060E",
"= c #32080F",
"- c #350810",
"; c #3A0911",
": c #430A13",
"> c #4D0C16",
", c #510C17",
"< c #550D19",
"1 c #5C0E1B",
"2 c #630F1C",
"3 c #680F1E",
"4 c #67101E",
"5 c #6A101F",
"6 c #6E1120",
"7 c #731222",
"8 c #7D1325",
"9 c #821426",
"0 c #861528",
"q c #8B162A",
"w c #91172B",
"e c #94182C",
"r c #9B1A2F",
"t c #9E1B30",
"y c #A21B31",
"u c #A91D34",
"i c None",
/* pixels */
"iiiiiiiiiiiiiiiiiiiiiiiiiiiiiiiiiiiiiiiiiiiiiiiiiiiiiiiiiiiii",
"iiiiiiiiiiiiiiiiiiiiiiiiiiiiiiiiiiiiiiiiiiiiiiiiiiiiiiiiiiiii",
"iiiiiiiiiiiiiiiiiiiiiiiiiiiiiiiiiiiiiiiiiiiiiiiiiiiiiiiiiiiii",
"iiiiiiiiiiiiiiiiiiiiiiiiiiiiiiiiiiiiiiiiiiiiiiiiiiiiiiiiiiiii",
"iiiiiiiiiiiiiiiiiiiiiiiiii+++++++++++%&iiiiiiiiiiiiiiiiiiiiii",
"iiiiiiiiiiiiiiiiiiiiiiiii<475656664454<:iiiiiiiiiiiiiiiiiiiii",
"iiiiiiiiiiiiiiiiiiiiiiiiX7tyttrrrerrr07<#iiiiiiiiiiiiiiiiiiii",
"iiiiiiiiiiiiiiiiiiiiiii>60eeeeeeetuuytq7,:iiiiiiiiiiiiiiiiiii",
"iiiiiiiiiiiiiiiiiiiiiiX7rq1><<<>10yuyytq7>#iiiiiiiiiiiiiiiiii",
"iiiiiiiiiiiiiiiiiiiii<5ee7+ ... o6qtyyyrq8<:iiiiiiiiiiiiiiiii",
"iiiiiiiiiiiiiiiiiiiiX7r0<=o ... .&<qyuyyrq7<=iiiiiiiiiiiiiiii",
"iiiiiiiiiiiiiiiiiii<40e7+         o6eryyye93&iiiiiiiiiiiiiiii",
"iiiiiiiiiiiiiiiiii&6rq<*o         o$<0yure81#iiiiiiiiiiiiiiii",
"iiiiiiiiiiiiiiiiii&0uq*             =8yuyw95<>iiiiiiiiiiiiiii",
"iiiiiiiiiiiiiiiiii&8rq:X            :9yyyw997<=iiiiiiiiiiiiii",
"iiiiiiiiiiiiiiiiii&8tq:XX          X:9yye09093=iiiiiiiiiiiiii",
"iiiiiiiiiiiiiiiiii&8tq:XX         XX:0ye999082=iiiiiiiiiiiiii",
"iiiiiiiiiiiiiiiiii&8tq:XX         XX:9ue875882=iiiiiiiiiiiiii",
"iiiiiiiiiiiiiiiiii&8yq:XX          X:9ye81>782=iiiiiiiiiiiiii",
"iiiiiiiiiiiiiiiiii&7e9:o            -0yr8,=593=iiiiiiiiiiiiii",
"iiiiiiiiiiiiiiiiii=597:OX           -0ye8<;703=iiiiiiiiiiiiii",
"iiiiiiiiiiiiiiiiii=395;.          O<8qew81;23<&iiiiiiiiiiiiii",
"iiiiiiiiiiiiiiiiii=505;o          ;8yw9082*::iiiiiiiiiiiiiiii",
"iiiiiiiiiiiiiiiiii=<574>O       O:40rw885<=$%iiiiiiiiiiiiiiii",
"iiiiiiiiiiiiiiiiiiii;596;o     o=4800085;iiiiiiiiiiiiiiiiiiii",
"iiiiiiiiiiiiiiiiiiiii<562:. X X:1807233,iiiiiiiiiiiiiiiiiiiii",
"iiiiiiiiiiiiiiiiiiiiii=584-&=&=48093=;;iiiiiiiiiiiiiiiiiiiiii",
"iiiiiiiiiiiiiiiiiiiii:<8eq87877qeq8511<>iiiiiiiiiiiiiiiiiiiii",
"iiiiiiiiiiiiiiiiiiii=28eryyyyyyyyw989982=iiiiiiiiiiiiiiiiiiii",
"iiiiiiiiiiiiiiiiiii>29etyyyyyyyyyrwwwrw92>iiiiiiiiiiiiiiiiiii",
"iiiiiiiiiiiiiiiiii=28wtyyyyyyyyyyyryyure81=iiiiiiiiiiiiiiiiii",
"iiiiiiiiiiiiiiiiii=58wyyyyyyyyyyyyuyyyye83=iiiiiiiiiiiiiiiiii",
"iiiiiiiiiiiiiiiiii-28wyyyyyytytytyyyyyyw82=iiiiiiiiiiiiiiiiii",
"iiiiiiiiiiiiiiiiii&6wrtytytyyyyyyyyyyyyrq5%iiiiiiiiiiiiiiiiii",
"iiiiiiiiiiiiiiiiii&7tuytyytyyyyyyyyytyyur8&iiiiiiiiiiiiiiiiii",
"iiiiiiiiiiiiiiiiii+7tuyyyyyyyytytyyryyyyy02>iiiiiiiiiiiiiiiii",
"iiiiiiiiiiiiiiiiii=7ruyytytyyyyytytyyyyyre81=iiiiiiiiiiiiiiii",
"iiiiiiiiiiiiiiiii>30ryyyyytrwrtyyyyyytyyye94=iiiiiiiiiiiiiiii",
"iiiiiiiiiiiiiiii=18etuyyyyuq8qruyyyyyyyyre82=iiiiiiiiiiiiiiii",
"iiiiiiiiiiiiiiii=38eruytytue9wuyyttyyyyyre81=iiiiiiiiiiiiiiii",
"iiiiiiiiiiiiiiii=28wtyyytttq9qtuyyyyyyyytw82=iiiiiiiiiiiiiiii",
"iiiiiiiiiiiiiiii&280qrtuure827wryyyyyyyyyw81#iiiiiiiiiiiiiiii",
"iiiiiiiiiiiiiiii=2898qtyte91*<9etyytyyyyyw82;iiiiiiiiiiiiiiii",
"iiiiiiiiiiiiiiii=2899wytqq02;19qqrueqryrq0874<-iiiiiiiiiiiiii",
"iiiiiiiiiiiiiiii=2999wye9881;<889wtw9eyq889092=iiiiiiiiiiiiii",
"iiiiiiiiiiiiiiii=28990w0962:@:2700werwq9990092=iiiiiiiiiiiiii",
"iiiiiiiiiiiiiiii=289889993;X  &2989ete99988982=iiiiiiiiiiiiii",
"iiiiiiiiiiiiiiii*398<380q5;o  O;178qq099831893*iiiiiiiiiiiiii",
"iiiiiiiiiiiiiiii-185:18083;o   .=39988898<-581-iiiiiiiiiiiiii",
"iiiiiiiiiiiiiiiii><678981:@.   .-30q971801=<<>iiiiiiiiiiiiiii",
"iiiiiiiiiiiiiiiiii$<8082;.     O;3898<=582-&-iiiiiiiiiiiiiiii",
"iiiiiiiiiiiiiiiiiii><51,;@  iii=;,23<>i<1<--iiiiiiiiiiiiiiiii",
"iiiiiiiiiiiiiiiiiiii=&&-;$ iiiii;===&iii=-;iiiiiiiiiiiiiiiiii",
"iiiiiiiiiiiiiiiiiiiiiOoOiiiiiiiOO@iiiiiiiiiiiiiiiiiiiiiiiiiii",
"iiiiiiiiiiiiiiiiiiiiii  iiiiiiii  iiiiiiiiiiiiiiiiiiiiiiiiiii",
"iiiiiiiiiiiiiiiiiiiiiii  iiiiiiii  iiiiiiiiiiiiiiiiiiiiiiiiii",
"iiiiiiiiiiiiiiiiiiiiiiii  iiiiiii  iiiiiiiiiiiiiiiiiiiiiiiiii",
"iiiiiiiiiiiiiiiiiiiiiiiiiiiiiiiiiiiiiiiiiiiiiiiiiiiiiiiiiiiii",
"iiiiiiiiiiiiiiiiiiiiiiiiiiiiiiiiiiiiiiiiiiiiiiiiiiiiiiiiiiiii",
"iiiiiiiiiiiiiiiiiiiiiiiiiiiiiiiiiiiiiiiiiiiiiiiiiiiiiiiiiiiii",
"iiiiiiiiiiiiiiiiiiiiiiiiiiiiiiiiiiiiiiiiiiiiiiiiiiiiiiiiiiiii",
"iiiiiiiiiiiiiiiiiiiiiiiiiiiiiiiiiiiiiiiiiiiiiiiiiiiiiiiiiiiii",
"iiiiiiiiiiiiiiiiiiiiiiiiiiiiiiiiiiiiiiiiiiiiiiiiiiiiiiiiiiiii",
"iiiiiiiiiiiiiiiiiiiiiiiiiiiiiiiiiiiiiiiiiiiiiiiiiiiiiiiiiiiii",
"iiiiiiiiiiiiiiiiiiiiiiiiiiiiiiiiiiiiiiiiiiiiiiiiiiiiiiiiiiiii"
};
