/* XPM */
static char *result[] = {
/* columns rows colors chars-per-pixel */
"61 65 70 1 ",
"  c #000000",
". c #0C0304",
"X c #000508",
"o c #0C0C0C",
"O c #130204",
"+ c #1C0306",
"@ c #1A060A",
"# c #100F0F",
"$ c #1F080B",
"% c #141414",
"& c #240407",
"* c #2B0000",
"= c #24060B",
"- c #2C060C",
"; c #27080D",
": c #2D080E",
"> c #310000",
", c #3C0000",
"< c #33060D",
"1 c #3F000B",
"2 c #31080F",
"3 c #360910",
"4 c #3A0911",
"5 c #3D1117",
"6 c #222222",
"7 c gray16",
"8 c #3D3B3C",
"9 c #430A13",
"0 c #4D0B16",
"q c #510C17",
"w c #550D18",
"e c #5C0E1B",
"r c #461118",
"t c #55161E",
"y c #770000",
"u c #7E0000",
"i c #620F1C",
"p c #680F1E",
"a c #71061C",
"s c #66101E",
"d c #6A101F",
"f c #6E1120",
"g c #6F1825",
"h c #741222",
"j c #7D1325",
"k c #3E4040",
"l c #525151",
"z c gray48",
"x c #86000C",
"c c #821426",
"v c #861528",
"b c #8C162A",
"n c #8A1B2C",
"m c #91172B",
"M c #94182D",
"N c #9B1A2F",
"B c #9F1B30",
"V c #A21B31",
"C c #A91D34",
"Z c #838484",
"A c #A09F9F",
"S c gray65",
"D c #ACACAC",
"F c #B4B4B4",
"G c gray74",
"H c gray77",
"J c #CBCBCB",
"K c #DCDCDC",
"L c #FBFBFB",
"P c None",
/* pixels */
"PPPPPPPPPPPPPPPPPPPPPPPPPPPPPPPPPPPPPPPPPPPPPPPPPPPPPPPPPPPPP",
"PPPPPPPPPPPPPPPPPPPPPPPPPPPPPPPPPPPPPPPPPPPPPPPPPPPPPPPPPPPPP",
"PPPPPPPPPPPPPPPPPPPPPPPPPP@@@@@@@@@@@;;PPPPPPPPPPPPPPPPPPPPPP",
"PPPPPPPPPPPPPPPPPPPPPPPPPwshifffffsssiq0PPPPPPPPPPPPPPPPPPPPP",
"PPPPPPPPPPPPPPPPPPPPPPPPXfNVBNBBBBMMMvfq=PPPPPPPPPPPPPPPPPPPP",
"PPPPPPPPPPPPPPPPPPPPPPP0sbMMMMMMmVCCCBbh09PPPPPPPPPPPPPPPPPPP",
"PPPPPPPPPPPPPPPPPPPPPPXhNneqeetqebCCVVBbf0=PPPPPPPPPPPPPPPPPP",
"PPPPPPPPPPPPPPPPPPPPPqdbMh+ ... OsbBVVVBbjq9PPPPPPPPPPPPPPPPP",
"PPPPPPPPPPPPPPPPPPPPXfNbe<O ... .2ebCCBVBbhw2PPPPPPPPPPPPPPPP",
"PPPPPPPPPPPPPPPPPPPtibMh$         @ibBVVBMvs:PPPPPPPPPPPPPPPP",
"PPPPPPPPPPPPPPPPPP:fNbe<O         .2evVCVmje;PPPPPPPPPPPPPPPP",
"PPPPPPPPPPPPPPPPPP:vVb2             :jVCVbjdq0PPPPPPPPPPPPPPP",
"PPPPPPPPPPPPPPPPPP:jVb9X           X9cVCVbcjhe2PPPPPPPPPPPPPP",
"PPPPPPPPPPPPPPPPPP;jVn9    o .     o9cVBMbcvcs2PPPPPPPPPPPPPP",
"PPPPPPPPPPPPPPPPPP;jVnr    o o    .#9vBMvccvji2PPPPPPPPPPPPPP",
"PPPPPPPPPPPPPPPPPP:jVx,zSZ%    ZSz  9vVMjhfjji:PPPPPPPPPPPPPP",
"PPPPPPPPPPPPPPPPPP:jVx*FLJ7   XHLG  9cVMje9hci2PPPPPPPPPPPPPP",
"PPPPPPPPPPPPPPPPPP:hMy>AKF6    DKS  4bVMjq2fci2PPPPPPPPPPPPPP",
"PPPPPPPPPPPPPPPPPP2dca18lkX    8l8  4cCMjq9hcp3PPPPPPPPPPPPPP",
"PPPPPPPPPPPPPPPPPP2pcg5    % #    $thbMmje4idw:PPPPPPPPPPPPPP",
"PPPPPPPPPPPPPPPPPP2dcf4.          4jVMccci299PPPPPPPPPPPPPPPP",
"PPPPPPPPPPPPPPPPPP2edhi0&       +4ibNmjjdw2;;PPPPPPPPPPPPPPPP",
"PPPPPPPPPPPPPPPPPPPP4djf2.     .2sjccbcd4PPPPPPPPPPPPPPPPPPPP",
"PPPPPPPPPPPPPPPPPPPPPwpfs9. . .4sjchidpqPPPPPPPPPPPPPPPPPPPPP",
"PPPPPPPPPPPPPPPPPPPPPP3pjp3=2;2ijcci444PPPPPPPPPPPPPPPPPPPPPP",
"PPPPPPPPPPPPPPPPPPPPP9wjmbhhhhhnmbjdwew0PPPPPPPPPPPPPPPPPPPPP",
"PPPPPPPPPPPPPPPPPPPP2ejMVVVBVNVVVmjjjcji:PPPPPPPPPPPPPPPPPPPP",
"PPPPPPPPPPPPPPPPPPP0ecmNVCVVCVVVVNmmMMmci0PPPPPPPPPPPPPPPPPPP",
"PPPPPPPPPPPPPPPPPP3ijmVVVVVVVBBVVVNVVVVmje<PPPPPPPPPPPPPPPPPP",
"PPPPPPPPPPPPPPPPPP2ijMVVVVBVVVVVVVVVVVVMji3PPPPPPPPPPPPPPPPPP",
"PPPPPPPPPPPPPPPPPP2ijmVVVVVVVVVVVVVVVVVmje3PPPPPPPPPPPPPPPPPP",
"PPPPPPPPPPPPPPPPPP2dbNVVBVBVVBVBVVVVVVVNnf=PPPPPPPPPPPPPPPPPP",
"PPPPPPPPPPPPPPPPPP2hNCVVVNVVVVVNVVVVVVVVNh2PPPPPPPPPPPPPPPPPP",
"PPPPPPPPPPPPPPPPPP$hVVVVVVVVVVVVVVNVVVVVNbs0PPPPPPPPPPPPPPPPP",
"PPPPPPPPPPPPPPPPPP:hNCNVVVVVVVVVNVVVVVVVNMhe2PPPPPPPPPPPPPPPP",
"PPPPPPPPPPPPPPPPP0scVVVVVVVNmMVCVVVVVVVVVMcs2PPPPPPPPPPPPPPPP",
"PPPPPPPPPPPPPPPP2ejMVVVVVVVmcbVVVVVVVVVVVmji2PPPPPPPPPPPPPPPP",
"PPPPPPPPPPPPPPPP3sjMVVVVVVVmcmVVVVBVVVVVNMje2PPPPPPPPPPPPPPPP",
"PPPPPPPPPPPPPPPP2ejMVVVNCVVmcbVVBVVVVVVVNMje2PPPPPPPPPPPPPPPP",
"PPPPPPPPPPPPPPPP2ijvbMVCVNMhihmNVVVVVVVVVmje;PPPPPPPPPPPPPPPP",
"PPPPPPPPPPPPPPPP2ijcjmVVVMci2ecmVVVVVVVVBmji4PPPPPPPPPPPPPPPP",
"PPPPPPPPPPPPPPPP2ijcjmVBmbci2icbbBVMbNVNbvjjsqPPPPPPPPPPPPPPP",
"PPPPPPPPPPPPPPPP2ijvcmBMjjji4ejjcMVmcMVmjcccjs2PPPPPPPPPPPPPP",
"PPPPPPPPPPPPPPPP:ijccbbbchi4&9ihcbbMMMbcjcvvci2PPPPPPPPPPPPPP",
"PPPPPPPPPPPPPPPP2iccjjcccp4.  2ijjcMBmjjccjcji2PPPPPPPPPPPPPP",
"PPPPPPPPPPPPPPPP2pcjeicccd4O  O9ehcbbbccjpejcp2PPPPPPPPPPPPPP",
"PPPPPPPPPPPPPPPP2ijp4ejcci4O   .3pcccjjcjw<fje2PPPPPPPPPPPPPP",
"PPPPPPPPPPPPPPPPP0epfjvji9&.   .3pvvcfijci<weqPPPPPPPPPPPPPPP",
"PPPPPPPPPPPPPPPPPP;ejcjs3.     +4ijcje2dje222PPPPPPPPPPPPPPPP",
"PPPPPPPPPPPPPPPPPPP0ediq4&  PPP:9weie0Pwsw42PPPPPPPPPPPPPPPPP",
"PPPPPPPPPPPPPPPPPPPP2223<- PPPPP42::;PPP:34PPPPPPPPPPPPPPPPPP",
"PPPPPPPPPPPPPPPPPPPPPPP&&+PPPPPPP&O+OPPPPPPPPPPPPPPPPPPPPPPPP",
"PPPPPPPPPPPPPPPPPPPPPPPP  PPPPPPP    PPPPPPPPPPPPPPPPPPPPPPPP",
"PPPPPPPPPPPPPPPPPPPPPPPP  PPPPPPP   PPPPPPPPPPPPPPPPPPPPPPPPP",
"PPPPPPPPPPPPPPPPPPPPPPPP  PPPPPPP  PPPPPPPPPPPPPPPPPPPPPPPPPP",
"PPPPPPPPPPPPPPPPPPPPPPP   PPPPPPP   PPPPPPPPPPPPPPPPPPPPPPPPP",
"PPPPPPPPPPPPPPPPPPPPPPPP  PPPPPPP  PPPPPPPPPPPPPPPPPPPPPPPPPP",
"PPPPPPPPPPPPPPPPPPPPPPPPPPPPPPPPPPPPPPPPPPPPPPPPPPPPPPPPPPPPP",
"PPPPPPPPPPPPPPPPPPPPPPPPPPPPPPPPPPPPPPPPPPPPPPPPPPPPPPPPPPPPP",
"PPPPPPPPPPPPPPPPPPPPPPPPPPPPPPPPPPPPPPPPPPPPPPPPPPPPPPPPPPPPP",
"PPPPPPPPPPPPPPPPPPPPPPPPPPPPPPPPPPPPPPPPPPPPPPPPPPPPPPPPPPPPP",
"PPPPPPPPPPPPPPPPPPPPPPPPPPPPPPPPPPPPPPPPPPPPPPPPPPPPPPPPPPPPP",
"PPPPPPPPPPPPPPPPPPPPPPPPPPPPPPPPPPPPPPPPPPPPPPPPPPPPPPPPPPPPP",
"PPPPPPPPPPPPPPPPPPPPPPPPPPPPPPPPPPPPPPPPPPPPPPPPPPPPPPPPPPPPP",
"PPPPPPPPPPPPPPPPPPPPPPPPPPPPPPPPPPPPPPPPPPPPPPPPPPPPPPPPPPPPP"
};
