/* XPM */
static char *result[] = {
/* columns rows colors chars-per-pixel */
"61 65 33 1 ",
"  c #000000",
". c #0B0001",
"X c #150102",
"o c #1C0102",
"O c #220104",
"+ c #2C0106",
"@ c #2E0208",
"# c #320207",
"$ c #360209",
"% c #3C020A",
"& c #42030B",
"* c #4C040E",
"= c #50050F",
"- c #4E0410",
"; c #540511",
": c #5C0614",
"> c #620616",
", c #670718",
"< c #6A0719",
"1 c #6C091A",
"2 c #730A1C",
"3 c #7B0B1F",
"4 c #7E0B20",
"5 c #830C21",
"6 c #8A0E24",
"7 c #8D1025",
"8 c #911027",
"9 c #941128",
"0 c #9C132B",
"q c #A2142D",
"w c #A71630",
"e c #A81630",
"r c None",
/* pixels */
"rrrrrrrrrrrrrrrrrrrrrrrrrrrrrrrrrrrrrrrrrrrrrrrrrrrrrrrrrrrrr",
"rrrrrrrrrrrrrrrrrrrrrrrrrrrrrrrrrrrrrrrrrrrrrrrrrrrrrrrrrrrrr",
"rrrrrrrrrrrrrrrrrrrrrrrrrrrrrrrrrrrrrrrrrrrrrrrrrrrrrrrrrrrrr",
"rrrrrrrrrrrrrrrrrrrrrrrrrrrrrrrrrrrrrrrrrrrrrrrrrrrrrrrrrrrrr",
"rrrrrrrrrrrrrrrrrrrrrr+OXXXXXXXXXXXrrrrrrrrrrrrrrrrrrrrrrrrrr",
"rrrrrrrrrrrrrrrrrrrrr&;,<,<<1111111:rrrrrrrrrrrrrrrrrrrrrrrrr",
"rrrrrrrrrrrrrrrrrrrro;2600000000qw01 rrrrrrrrrrrrrrrrrrrrrrrr",
"rrrrrrrrrrrrrrrrrrr%-360qee0090999961=rrrrrrrrrrrrrrrrrrrrrrr",
"rrrrrrrrrrrrrrrrrrO-260qqww7;-;;;-:602 rrrrrrrrrrrrrrrrrrrrrr",
"rrrrrrrrrrrrrrrrr&;360qwq07,. .   .497<;rrrrrrrrrrrrrrrrrrrrr",
"rrrrrrrrrrrrrrrr@;260qqee7:+.  .  .@;701 rrrrrrrrrrrrrrrrrrrr",
"rrrrrrrrrrrrrrrr+>59qeq07,.         o296<;rrrrrrrrrrrrrrrrrrr",
"rrrrrrrrrrrrrrrrO:39qwq7;+.         .+;701+rrrrrrrrrrrrrrrrrr",
"rrrrrrrrrrrrrrr*;149qwq5@             @7e5+rrrrrrrrrrrrrrrrrr",
"rrrrrrrrrrrrrr+;3447qwq5%             &7q3+rrrrrrrrrrrrrrrrrr",
"rrrrrrrrrrrrrr+,56579qq5&             &7q4+rrrrrrrrrrrrrrrrrr",
"rrrrrrrrrrrrrr+>366559q6&             %703+rrrrrrrrrrrrrrrrrr",
"rrrrrrrrrrrrrr+>351139q5&             &7q3+rrrrrrrrrrrrrrrrrr",
"rrrrrrrrrrrrrr+,52&:49q6%             &7q4+rrrrrrrrrrrrrrrrrr",
"rrrrrrrrrrrrrr+,51#=30q5$            .&592+rrrrrrrrrrrrrrrrrr",
"rrrrrrrrrrrrrr+,51%=39q6$            X%25,@rrrrrrrrrrrrrrrrrr",
"rrrrrrrrrrrrrr+;<>%:59963;X          .$15<#rrrrrrrrrrrrrrrrrr",
"rrrrrrrrrrrrrrrr&&#>5559q3$          .$25<@rrrrrrrrrrrrrrrrrr",
"rrrrrrrrrrrrrrrroO#;<35906,%X       X*,21;@rrrrrrrrrrrrrrrrrr",
"rrrrrrrrrrrrrrrrrrrr%,56565,#.     .$15<$rrrrrrrrrrrrrrrrrrrr",
"rrrrrrrrrrrrrrrrrrrrr*>,>253>%    .&:1<;rrrrrrrrrrrrrrrrrrrrr",
"rrrrrrrrrrrrrrrrrrrrrr%$$>554>#O@O#<4,#rrrrrrrrrrrrrrrrrrrrrr",
"rrrrrrrrrrrrrrrrrrrrr*;>:,569632323795;&rrrrrrrrrrrrrrrrrrrrr",
"rrrrrrrrrrrrrrrrrrrr+>353458qqqqqqqqq93>@rrrrrrrrrrrrrrrrrrrr",
"rrrrrrrrrrrrrrrrrrr->5809990qqeqqwqwq095>*rrrrrrrrrrrrrrrrrrr",
"rrrrrrrrrrrrrrrrrr+>38qqqqqqqqqqqqqqqq093>#rrrrrrrrrrrrrrrrrr",
"rrrrrrrrrrrrrrrrrr#>59qqqqqqqqqqqqqqqwq94,@rrrrrrrrrrrrrrrrrr",
"rrrrrrrrrrrrrrrrrr#,49qqqqqqqqqqqqqq0qq94>+rrrrrrrrrrrrrrrrrr",
"rrrrrrrrrrrrrrrrrro,60qqqqqqqqqqqqqqqqq071+rrrrrrrrrrrrrrrrrr",
"rrrrrrrrrrrrrrrrrr+2qwqqqqqqqqqqqqqqqqqw03+rrrrrrrrrrrrrrrrrr",
"rrrrrrrrrrrrrrrrr->6qqqqqqqqq0qqqqqqqqqe03Xrrrrrrrrrrrrrrrrrr",
"rrrrrrrrrrrrrrrr+>490qqq0qqqqqqqqqqqqqqw03+rrrrrrrrrrrrrrrrrr",
"rrrrrrrrrrrrrrrr+>59qqqqqqqqqqq090qqqqqq06>*rrrrrrrrrrrrrrrrr",
"rrrrrrrrrrrrrrrr+>39qqq0qqqqqqq839qqqqqq093>#rrrrrrrrrrrrrrrr",
"rrrrrrrrrrrrrrrr+:39qqqqqqqqqqq959qwqqqqq03,+rrrrrrrrrrrrrrrr",
"rrrrrrrrrrrrrrrr+>39qqqqqqqqqqq657qqqqqq093:+rrrrrrrrrrrrrrrr",
"rrrrrrrrrrrrrrrro:39qqqqqqqqq082:380wqq0764>@rrrrrrrrrrrrrrrr",
"rrrrrrrrrrrrrrrr$>380qqqqqqqq95:#:59qqq7555>+rrrrrrrrrrrrrrrr",
"rrrrrrrrrrrrrr@;,35680q060q0865>#>5790q8353>@rrrrrrrrrrrrrrrr",
"rrrrrrrrrrrrrr+,565538q95809555:#>3559q8555>+rrrrrrrrrrrrrrrr",
"rrrrrrrrrrrrrr+>36555569098652:%o&>25776553>+rrrrrrrrrrrrrrrr",
"rrrrrrrrrrrrrr+>35335558q9535>+   #<5553555,#rrrrrrrrrrrrrrrr",
"rrrrrrrrrrrrrr+<63:<55568652:%.  .$1555,;35,+rrrrrrrrrrrrrrrr",
"rrrrrrrrrrrrrr+:3,$;5535355,#    X$,555:%<4:+rrrrrrrrrrrrrrrr",
"rrrrrrrrrrrrrrr-:;+:53>1566,+.    o%:3532<:*rrrrrrrrrrrrrrrrr",
"rrrrrrrrrrrrrrrr++#:3,#;355,%X     .$,553:Orrrrrrrrrrrrrrrrrr",
"rrrrrrrrrrrrrrrrr+$;>;r*:,:;%+rrr  o%*:,:*rrrrrrrrrrrrrrrrrrr",
"rrrrrrrrrrrrrrrrrr$$+rrr+++##rrrrr O$#O++rrrrrrrrrrrrrrrrrrrr",
"rrrrrrrrrrrrrrrrrrrrrrrrrrrooXrrrrrrro.Xrrrrrrrrrrrrrrrrrrrrr",
"rrrrrrrrrrrrrrrrrrrrrrrrrrr  rrrrrrrr  rrrrrrrrrrrrrrrrrrrrrr",
"rrrrrrrrrrrrrrrrrrrrrrrrrr  rrrrrrrr  rrrrrrrrrrrrrrrrrrrrrrr",
"rrrrrrrrrrrrrrrrrrrrrrrrrr  rrrrrrr  rrrrrrrrrrrrrrrrrrrrrrrr",
"rrrrrrrrrrrrrrrrrrrrrrrrrrrrrrrrrrrrrrrrrrrrrrrrrrrrrrrrrrrrr",
"rrrrrrrrrrrrrrrrrrrrrrrrrrrrrrrrrrrrrrrrrrrrrrrrrrrrrrrrrrrrr",
"rrrrrrrrrrrrrrrrrrrrrrrrrrrrrrrrrrrrrrrrrrrrrrrrrrrrrrrrrrrrr",
"rrrrrrrrrrrrrrrrrrrrrrrrrrrrrrrrrrrrrrrrrrrrrrrrrrrrrrrrrrrrr",
"rrrrrrrrrrrrrrrrrrrrrrrrrrrrrrrrrrrrrrrrrrrrrrrrrrrrrrrrrrrrr",
"rrrrrrrrrrrrrrrrrrrrrrrrrrrrrrrrrrrrrrrrrrrrrrrrrrrrrrrrrrrrr",
"rrrrrrrrrrrrrrrrrrrrrrrrrrrrrrrrrrrrrrrrrrrrrrrrrrrrrrrrrrrrr",
"rrrrrrrrrrrrrrrrrrrrrrrrrrrrrrrrrrrrrrrrrrrrrrrrrrrrrrrrrrrrr"
};
