/* XPM */
static char *result[] = {
/* columns rows colors chars-per-pixel */
"61 65 58 1 ",
"  c #010000",
". c #0C0101",
"X c #130102",
"o c #1D0103",
"O c #101010",
"+ c gray11",
"@ c #230104",
"# c #2C0106",
"$ c #320207",
"% c #3B0002",
"& c #360209",
"* c #3B020A",
"= c #3A0910",
"- c gray14",
"; c #3D3637",
": c #363838",
"> c #3C3D3D",
", c #42030B",
"< c #4C040E",
"1 c #51050F",
"2 c #4E0410",
"3 c #440911",
"4 c #530511",
"5 c #5C0614",
"6 c #540E18",
"7 c #7C0000",
"8 c #620616",
"9 c #670718",
"0 c #6A0719",
"q c #6E091A",
"w c #720115",
"e c #740A1C",
"r c #7B0B1F",
"t c #7E0B20",
"y c #701120",
"u c #515050",
"i c #7B7B7B",
"p c #870004",
"a c #830C21",
"s c #8A0E24",
"d c #8D1025",
"f c #8B1528",
"g c #911027",
"h c #951128",
"j c #9C132B",
"k c #A2142D",
"l c #A71630",
"z c #A81630",
"x c #848585",
"c c #A5A4A4",
"v c #ABABAB",
"b c #B5B5B5",
"n c gray",
"m c #C5C5C5",
"M c gray80",
"N c #DDDDDD",
"B c #FBFBFB",
"V c None",
/* pixels */
"VVVVVVVVVVVVVVVVVVVVVVVVVVVVVVVVVVVVVVVVVVVVVVVVVVVVVVVVVVVVV",
"VVVVVVVVVVVVVVVVVVVVVVVVVVVVVVVVVVVVVVVVVVVVVVVVVVVVVVVVVVVVV",
"VVVVVVVVVVVVVVVVVVVVVV#oXXXXXXXXXXXVVVVVVVVVVVVVVVVVVVVVVVVVV",
"VVVVVVVVVVVVVVVVVVVVV,48999099qqqq94VVVVVVVVVVVVVVVVVVVVVVVVV",
"VVVVVVVVVVVVVVVVVVVVo2eshjhjjjjjjkjq VVVVVVVVVVVVVVVVVVVVVVVV",
"VVVVVVVVVVVVVVVVVVV,2rsjlzzjjhhhhjhs92VVVVVVVVVVVVVVVVVVVVVVV",
"VVVVVVVVVVVVVVVVVVo2esjkkzzd5254545sjy VVVVVVVVVVVVVVVVVVVVVV",
"VVVVVVVVVVVVVVVVV,2tsjklkjh9.  .. Xehf94VVVVVVVVVVVVVVVVVVVVV",
"VVVVVVVVVVVVVVVV#4edjkklld4#.     .$5djq VVVVVVVVVVVVVVVVVVVV",
"VVVVVVVVVVVVVVVV#9ahkkkjg0X         oehs94VVVVVVVVVVVVVVVVVVV",
"VVVVVVVVVVVVVVVVo5thkzks4#.         .$4sjq#VVVVVVVVVVVVVVVVVV",
"VVVVVVVVVVVVVVV<40tdkzka#             $dla#VVVVVVVVVVVVVVVVVV",
"VVVVVVVVVVVVVV#4eathkllt*             ,djt@VVVVVVVVVVVVVVVVVV",
"VVVVVVVVVVVVVV#0aaadhjla,             ,fjt#VVVVVVVVVVVVVVVVVV",
"VVVVVVVVVVVVVV#8tssashks=.       .    3fkt@VVVVVVVVVVVVVVVVVV",
"VVVVVVVVVVVVVV#8ttqqthks,  ivx    Oxvi%pkt#VVVVVVVVVVVVVVVVVV",
"VVVVVVVVVVVVVV#8ae,5thka,  nBm    -MBb@7kt#VVVVVVVVVVVVVVVVVV",
"VVVVVVVVVVVVVV#0aq$<rjka&  cNv    +bNc#7he#VVVVVVVVVVVVVVVVVV",
"VVVVVVVVVVVVVV#0ae*4rhza&  :u>     >u;*wa9#VVVVVVVVVVVVVVVVVV",
"VVVVVVVVVVVVVV#408*5agjge6o    . .    =ya0$VVVVVVVVVVVVVVVVVV",
"VVVVVVVVVVVVVVVV,,&8aaahkr&          .&qa0$VVVVVVVVVVVVVVVVVV",
"VVVVVVVVVVVVVVVVo@#40rrhks8*X       X<8e04#VVVVVVVVVVVVVVVVVV",
"VVVVVVVVVVVVVVVVVVVV*0assaa8$      .&qaq*VVVVVVVVVVVVVVVVVVVV",
"VVVVVVVVVVVVVVVVVVVVV1808ear8*    .*5q04VVVVVVVVVVVVVVVVVVVVV",
"VVVVVVVVVVVVVVVVVVVVVV*&&8aar8#o#o$9r0$VVVVVVVVVVVVVVVVVVVVVV",
"VVVVVVVVVVVVVVVVVVVVV<4540ashsreteedhr4,VVVVVVVVVVVVVVVVVVVVV",
"VVVVVVVVVVVVVVVVVVVV#8raaragkkkkjjkkjhr5#VVVVVVVVVVVVVVVVVVVV",
"VVVVVVVVVVVVVVVVVVV<8agjhggjklkkllllkjha8<VVVVVVVVVVVVVVVVVVV",
"VVVVVVVVVVVVVVVVVV$5thkkkkkkkkkkkkkkkkkht5#VVVVVVVVVVVVVVVVVV",
"VVVVVVVVVVVVVVVVVV#9thkkkkkkkkkkkkkkkkkht9$VVVVVVVVVVVVVVVVVV",
"VVVVVVVVVVVVVVVVVV$8rhkkkkkkkkkkkkkkkkkhr5$VVVVVVVVVVVVVVVVVV",
"VVVVVVVVVVVVVVVVVVo0djkkkkkkkkjkkkkkkkkjdq#VVVVVVVVVVVVVVVVVV",
"VVVVVVVVVVVVVVVVVV#ejlkkkkjkkkkkkkkkkkkkjt@VVVVVVVVVVVVVVVVVV",
"VVVVVVVVVVVVVVVVV25sklkkkkkkkkkkkkkkkkkzjeXVVVVVVVVVVVVVVVVVV",
"VVVVVVVVVVVVVVVV#8rgkkkkkkkkkkkkkkkkkkkljt#VVVVVVVVVVVVVVVVVV",
"VVVVVVVVVVVVVVVV#9ahkkkkkkkkkkkjgjkkkkkkjs82VVVVVVVVVVVVVVVVV",
"VVVVVVVVVVVVVVVV#5thjkkkkkkkkkkgahklkkkkjht8$VVVVVVVVVVVVVVVV",
"VVVVVVVVVVVVVVVV#8rhkkkkkkkkkkkhahkkkkkklht8#VVVVVVVVVVVVVVVV",
"VVVVVVVVVVVVVVVV#5rhkkkkkkkkkkkgtgkkkkkkjht8#VVVVVVVVVVVVVVVV",
"VVVVVVVVVVVVVVVV@5rhkkkkkkkkkjge5rhjkkkjdst8#VVVVVVVVVVVVVVVV",
"VVVVVVVVVVVVVVVV&8rgjkkkkkkkkha5&5ahkkkgaaa8#VVVVVVVVVVVVVVVV",
"VVVVVVVVVVVVVVV19rasgjkjsjkjhsa8$8adgjkgrar8#VVVVVVVVVVVVVVVV",
"VVVVVVVVVVVVVV#9taaaagkhaskhaat5&8aaahkhaaa8$VVVVVVVVVVVVVVVV",
"VVVVVVVVVVVVVV#8tsaaraggjhgsae8*o,5easgsaar8#VVVVVVVVVVVVVVVV",
"VVVVVVVVVVVVVV#8raraaargkharr8#   &8aaaraar8$VVVVVVVVVVVVVVVV",
"VVVVVVVVVVVVVV#0ar8qaaasgsae8,.  .*qssr05ra0#VVVVVVVVVVVVVVVV",
"VVVVVVVVVVVVVV#8a0&1aaraaaa9$    X&8aaa5*0r8#VVVVVVVVVVVVVVVV",
"VVVVVVVVVVVVVVV151#5aa80asa9$.    o,5rarqq5<VVVVVVVVVVVVVVVVV",
"VVVVVVVVVVVVVVVV##$8r0#4tat9*X     .$9tst5@VVVVVVVVVVVVVVVVVV",
"VVVVVVVVVVVVVVVVV#&484V25854*#VVV  o&45052VVVVVVVVVVVVVVVVVVV",
"VVVVVVVVVVVVVVVVVV&&#VVV####&VVVVV @&$###VVVVVVVVVVVVVVVVVVVV",
"VVVVVVVVVVVVVVVVVVVVVVVV.X.oVVVVVVVXooVVVVVVVVVVVVVVVVVVVVVVV",
"VVVVVVVVVVVVVVVVVVVVVVVV    VVVVVVV  VVVVVVVVVVVVVVVVVVVVVVVV",
"VVVVVVVVVVVVVVVVVVVVVVVVV   VVVVVVV  VVVVVVVVVVVVVVVVVVVVVVVV",
"VVVVVVVVVVVVVVVVVVVVVVVVVV  VVVVVVV  VVVVVVVVVVVVVVVVVVVVVVVV",
"VVVVVVVVVVVVVVVVVVVVVVVVV   VVVVVVV   VVVVVVVVVVVVVVVVVVVVVVV",
"VVVVVVVVVVVVVVVVVVVVVVVVVV  VVVVVVV  VVVVVVVVVVVVVVVVVVVVVVVV",
"VVVVVVVVVVVVVVVVVVVVVVVVVVVVVVVVVVVVVVVVVVVVVVVVVVVVVVVVVVVVV",
"VVVVVVVVVVVVVVVVVVVVVVVVVVVVVVVVVVVVVVVVVVVVVVVVVVVVVVVVVVVVV",
"VVVVVVVVVVVVVVVVVVVVVVVVVVVVVVVVVVVVVVVVVVVVVVVVVVVVVVVVVVVVV",
"VVVVVVVVVVVVVVVVVVVVVVVVVVVVVVVVVVVVVVVVVVVVVVVVVVVVVVVVVVVVV",
"VVVVVVVVVVVVVVVVVVVVVVVVVVVVVVVVVVVVVVVVVVVVVVVVVVVVVVVVVVVVV",
"VVVVVVVVVVVVVVVVVVVVVVVVVVVVVVVVVVVVVVVVVVVVVVVVVVVVVVVVVVVVV",
"VVVVVVVVVVVVVVVVVVVVVVVVVVVVVVVVVVVVVVVVVVVVVVVVVVVVVVVVVVVVV",
"VVVVVVVVVVVVVVVVVVVVVVVVVVVVVVVVVVVVVVVVVVVVVVVVVVVVVVVVVVVVV"
};
