/* XPM */
static char *result[] = {
/* columns rows colors chars-per-pixel */
"65 65 47 1 ",
"  c #000302",
". c #050303",
"X c #000402",
"o c #000403",
"O c #010403",
"+ c #020403",
"@ c #030403",
"# c #050402",
"$ c #040403",
"% c #050403",
"& c #050503",
"* c #060403",
"= c #070403",
"- c #060503",
"; c #050404",
": c #060404",
"> c #060504",
", c #090403",
"< c #0A0403",
"1 c #0B0403",
"2 c #0E0403",
"3 c #0F0403",
"4 c #100403",
"5 c #150403",
"6 c #190403",
"7 c #1B0403",
"8 c #210403",
"9 c #2B0403",
"0 c #2C0403",
"q c #2F0404",
"w c #300404",
"e c #3E0504",
"r c #5D0605",
"t c #5F0605",
"y c #660606",
"u c #680606",
"i c #740706",
"p c #770707",
"a c #800807",
"s c #830807",
"d c #870808",
"f c #8A0908",
"g c #940909",
"h c #970909",
"j c #A30B0A",
"k c #BD0D0D",
"l c None",
/* pixels */
"lllllllllllllllllllllllllllllllllllllllllllllllllllllllllllllllll",
"lllllllllllllllllllllllllllllllllllllllllllllllllllllllllllllllll",
"lllllllllllllllllllllllllllllllllllllllllllllllllllllllllllllllll",
"lllllllllllllllllllllllllllllllllllllllllllllllllllllllllllllllll",
"lllllllllllllllllllllllllllllllllllllllllllllllllllllllllllllllll",
"lllllllllllllllllllllllllllllllllllllllllllllllllllllllllllllllll",
"lllllllllllllllllllllllllllllllllllllllllllllllllllllllllllllllll",
"lllllllllllllllllllllllllllllllllllllllllllllllllllllllllllllllll",
"lllllllllllllllllllllllllllllllllllllllllllllllllllllllllllllllll",
"lllllllllllllllllllllllllllllllllllllllllllllllllllllllllllllllll",
"lllllllllllllllllllllllllllllllllllllllllllllllllllllllllllllllll",
"lllllllllllllllllllllllllllllllllllllllllllllllllllllllllllllllll",
"lllllllllllllllllllllllllll$%&lllllllllllllllllllllllllllllllllll",
"llllllllllllllllllllllllll.%>%.llllllllllllllllllllllllllllllllll",
"llllllllllllllllllllllllll&--%;&$&lllllllllllllllllllllllllllllll",
"lllllllllllllllllllllllllll%%%%%-%.llllllllllllllllllllllllllllll",
"llllllllllllllllllllllllllll*%%%%%$&lllllllllllllllllllllllllllll",
"llllllllllllllllllllllllllll:%%%%%%%;llllllllllllllllllllllllllll",
"llllllllllllllllllllllllllll:%%%%%%%;llllllllllllllllllllllllllll",
"llllllllllllllllllllllllllll:%%%%%%%:llllllllllllllllllllllllllll",
"lllllllllllllllllllllllllllll%%%%%%%:llllllllllllllllllllllllllll",
"llllllllllllllllllllllllllll;%%%%%%%:llllllllllllllllllllllllllll",
"lllllllllllllllllllllllllll.;%%%%%*%.llllllllllllllllllllllllllll",
"llllllllllllllllllllllllll.%%%%%%%%%:llllllllllllllllllllllllllll",
"llllllllllllllllllllllllll;%%%%%%%%llllllllllllllllllllllllllllll",
"llllllllllllllllllllllllll.%%%%%%%:llllllllllllllllllllllllllllll",
"lllllllllllllllllllllllll.;%%%%%%%lllllllllllllllllllllllllllllll",
"llllllllllllllllllllllll.%%%%%%%%%:llllllllllllllllllllllllllllll",
"lllllllllllllllllllllll..%%%%%%%%%lllllllllllllllllllllllllllllll",
"llllllllllllllllllllll.%%%%%%%%%%%:llllllllllllllllllllllllllllll",
"llllllllllllllllllllll$-*%%%%%%%%%%:lllllllllllllllllllllllllllll",
"llllllllllllllllllllll.%%%%%%%%%%%%%:llllllllllllllllllllllllllll",
"llllllllllllllllllllllll%%%%%%%%%%%%:llllllllllllllllllllllllllll",
"llllllllllllllllllllllll.%%%%%%%%%%%:llllllllllllllllllllllllllll",
"llllllllllllllllllllllll%%%%%%%%%%%%%:lllllllllllllllllllllllllll",
"llllllllllllllllllllll.%%%%%%%%%%%%%%%:llllllllllllllllllllllllll",
"llllllllllllllllllllll&*%%%%%%%%%%%%%%#:lllllllllllllllllllllllll",
"llllllllllllllllllllll.%%%%%%%%%%%%%%%%%:llllllllllllllllllllllll",
"llllllllllllllllllllll.%%%%%%%%%%%%%%%%%#llllllllllllllllllllllll",
"llllllllllllllllllllll.%%%%%%%%%%%%%%%%%%%;llllllllllllllllllllll",
"llllllllllllllllllllll.%%%%%%%%%%%%%%%%%%*&llllllllllllllllllllll",
"llllllllllllllllllllll.%%%%%%%%%%%%%%%%%%%.llllllllllllllllllllll",
"llllllllllllllllllllll.%%%%%1$ooo%ooo@1%%%.llllllllllllllllllllll",
"llllllllllllllllllllll.%%%%%<$ooo%ooo@<%%%.llllllllllllllllllllll",
"llllllllllllllllllllll.%%%%%o4yst%rsu5o$%%.llllllllllllllllllllll",
"llllllllllllllllllllll.%%%%% 6gkf%dkh8 $%%&llllllllllllllllllllll",
"lllllllllllllllllllllll$$%%%X5ajp%ijs7o$*$lllllllllllllllllllllll",
"llllllllllllllllllllllll&%%%o=qe0%9ew,o%&llllllllllllllllllllllll",
"lllllllllllllllllllllllll$*%2@o o%o o+3$lllllllllllllllllllllllll",
"llllllllllllllllllllllllll&%*%Oo+%+o+%-llllllllllllllllllllllllll",
"lllllllllllllllllllllllllll$*%%%%%%%*$lllllllllllllllllllllllllll",
"llllllllllllllllllllllllllll&%*%%%*%&llllllllllllllllllllllllllll",
"lllllllllllllllllllllllllllll$*$$$*$lllllllllllllllllllllllllllll",
"lllllllllllllllllllllllllllllllllllllllllllllllllllllllllllllllll",
"lllllllllllllllllllllllllllllllllllllllllllllllllllllllllllllllll",
"lllllllllllllllllllllllllllllllllllllllllllllllllllllllllllllllll",
"lllllllllllllllllllllllllllllllllllllllllllllllllllllllllllllllll",
"lllllllllllllllllllllllllllllllllllllllllllllllllllllllllllllllll",
"lllllllllllllllllllllllllllllllllllllllllllllllllllllllllllllllll",
"lllllllllllllllllllllllllllllllllllllllllllllllllllllllllllllllll",
"lllllllllllllllllllllllllllllllllllllllllllllllllllllllllllllllll",
"lllllllllllllllllllllllllllllllllllllllllllllllllllllllllllllllll",
"lllllllllllllllllllllllllllllllllllllllllllllllllllllllllllllllll",
"lllllllllllllllllllllllllllllllllllllllllllllllllllllllllllllllll",
"lllllllllllllllllllllllllllllllllllllllllllllllllllllllllllllllll"
};
